{
  "accessors": [
    {
      "bufferView": 2,
      "componentType": 5126,
      "count": 559,
      "max": [
        1.7353999614715576,
        5.9033999443054199,
        199.783203125
      ],
      "min": [
        -9.6484003067016602,
        -5.4804000854492188,
        188.39939880371094
      ],
      "type": "VEC3"
    },
    {
      "bufferView": 2,
      "byteOffset": 6708,
      "componentType": 5126,
      "count": 559,
      "max": [
        1,
        1,
        1
      ],
      "min": [
        -1,
        -1,
        -1
      ],
      "type": "VEC3"
    },
    {
      "bufferView": 1,
      "componentType": 5126,
      "count": 559,
      "max": [
        1,
        1
      ],
      "min": [
        0,
        -0
      ],
      "type": "VEC2"
    },
    {
      "bufferView": 0,
      "componentType": 5125,
      "count": 2880,
      "max": [
        558
      ],
      "min": [
        0
      ],
      "type": "SCALAR"
    },
    {
      "bufferView": 2,
      "byteOffset": 13416,
      "componentType": 5126,
      "count": 672,
      "max": [
        21.243600845336914,
        25.392099380493164,
        166.94540405273438
      ],
      "min": [
        -30.173299789428711,
        -26.070899963378906,
        148.03269958496094
      ],
      "type": "VEC3"
    },
    {
      "bufferView": 2,
      "byteOffset": 21480,
      "componentType": 5126,
      "count": 672,
      "max": [
        0.99940133094787598,
        0.99940133094787598,
        0.73119032382965088
      ],
      "min": [
        -0.99940133094787598,
        -0.99940133094787598,
        -0.73119032382965088
      ],
      "type": "VEC3"
    },
    {
      "bufferView": 0,
      "byteOffset": 11520,
      "componentType": 5125,
      "count": 3888,
      "max": [
        671
      ],
      "min": [
        0
      ],
      "type": "SCALAR"
    },
    {
      "bufferView": 2,
      "byteOffset": 29544,
      "componentType": 5126,
      "count": 880,
      "max": [
        24.886899948120117,
        30.944099426269531,
        167.22599792480469
      ],
      "min": [
        -31.298700332641602,
        -26.354799270629883,
        142.98069763183594
      ],
      "type": "VEC3"
    },
    {
      "bufferView": 2,
      "byteOffset": 40104,
      "componentType": 5126,
      "count": 880,
      "max": [
        0.99938023090362549,
        0.99741816520690918,
        0.73292815685272217
      ],
      "min": [
        -0.99741816520690918,
        -0.99938023090362549,
        -0.78954166173934937
      ],
      "type": "VEC3"
    },
    {
      "bufferView": 0,
      "byteOffset": 27072,
      "componentType": 5125,
      "count": 5232,
      "max": [
        879
      ],
      "min": [
        0
      ],
      "type": "SCALAR"
    },
    {
      "bufferView": 2,
      "byteOffset": 50664,
      "componentType": 5126,
      "count": 6362,
      "max": [
        20.769800186157227,
        25.697099685668945,
        167.8280029296875
      ],
      "min": [
        -28.566099166870117,
        -24.569000244140625,
        149.50650024414062
      ],
      "type": "VEC3"
    },
    {
      "bufferView": 2,
      "byteOffset": 127008,
      "componentType": 5126,
      "count": 6362,
      "max": [
        0.99791359901428223,
        0.99990761280059814,
        0.84309953451156616
      ],
      "min": [
        -0.99839651584625244,
        -0.99990761280059814,
        -0.84309953451156616
      ],
      "type": "VEC3"
    },
    {
      "bufferView": 0,
      "byteOffset": 48000,
      "componentType": 5125,
      "count": 39900,
      "max": [
        6361
      ],
      "min": [
        0
      ],
      "type": "SCALAR"
    },
    {
      "bufferView": 2,
      "byteOffset": 203352,
      "componentType": 5126,
      "count": 2910,
      "max": [
        20.141300201416016,
        25.697099685668945,
        167.13420104980469
      ],
      "min": [
        -28.304000854492188,
        -24.398599624633789,
        151.96150207519531
      ],
      "type": "VEC3"
    },
    {
      "bufferView": 2,
      "byteOffset": 238272,
      "componentType": 5126,
      "count": 2910,
      "max": [
        0.99791359901428223,
        0.99676913022994995,
        0.71672827005386353
      ],
      "min": [
        -0.99839651584625244,
        -0.99672031402587891,
        -0.73001474142074585
      ],
      "type": "VEC3"
    },
    {
      "bufferView": 0,
      "byteOffset": 207600,
      "componentType": 5125,
      "count": 11697,
      "max": [
        2909
      ],
      "min": [
        0
      ],
      "type": "SCALAR"
    },
    {
      "bufferView": 2,
      "byteOffset": 273192,
      "componentType": 5126,
      "count": 20,
      "max": [
        58.475101470947266,
        37.191299438476562,
        44.992599487304688
      ],
      "min": [
        -71.52490234375,
        -32.808700561523438,
        39.992599487304688
      ],
      "type": "VEC3"
    },
    {
      "bufferView": 2,
      "byteOffset": 273432,
      "componentType": 5126,
      "count": 20,
      "max": [
        0.57735025882720947,
        0.57735025882720947,
        0.57735025882720947
      ],
      "min": [
        -0.57735025882720947,
        -0.57735025882720947,
        -0.57735025882720947
      ],
      "type": "VEC3"
    },
    {
      "bufferView": 1,
      "byteOffset": 4472,
      "componentType": 5126,
      "count": 20,
      "max": [
        1,
        1
      ],
      "min": [
        0,
        0
      ],
      "type": "VEC2"
    },
    {
      "bufferView": 0,
      "byteOffset": 254388,
      "componentType": 5125,
      "count": 36,
      "max": [
        19
      ],
      "min": [
        0
      ],
      "type": "SCALAR"
    },
    {
      "bufferView": 2,
      "byteOffset": 273672,
      "componentType": 5126,
      "count": 800,
      "max": [
        63.086700439453125,
        42.180198669433594,
        140
      ],
      "min": [
        -76.194297790527344,
        -37.819801330566406,
        0
      ],
      "type": "VEC3"
    },
    {
      "bufferView": 2,
      "byteOffset": 283272,
      "componentType": 5126,
      "count": 800,
      "max": [
        0.57735025882720947,
        0.99014949798583984,
        0.57735025882720947
      ],
      "min": [
        -0.57735025882720947,
        -0.96223562955856323,
        -0.57735025882720947
      ],
      "type": "VEC3"
    },
    {
      "bufferView": 1,
      "byteOffset": 4632,
      "componentType": 5126,
      "count": 800,
      "max": [
        1,
        1
      ],
      "min": [
        0,
        0
      ],
      "type": "VEC2"
    },
    {
      "bufferView": 0,
      "byteOffset": 254532,
      "componentType": 5125,
      "count": 1608,
      "max": [
        799
      ],
      "min": [
        0
      ],
      "type": "SCALAR"
    },
    {
      "bufferView": 2,
      "byteOffset": 292872,
      "componentType": 5126,
      "count": 1237,
      "max": [
        23.520099639892578,
        27.57390022277832,
        164.702392578125
      ],
      "min": [
        -32.917999267578125,
        -27.596200942993164,
        145.75520324707031
      ],
      "type": "VEC3"
    },
    {
      "bufferView": 2,
      "byteOffset": 307716,
      "componentType": 5126,
      "count": 1237,
      "max": [
        0.99998092651367188,
        0.99998092651367188,
        0.72670704126358032
      ],
      "min": [
        -0.99998092651367188,
        -0.99998092651367188,
        -0.71659630537033081
      ],
      "type": "VEC3"
    },
    {
      "bufferView": 0,
      "byteOffset": 260964,
      "componentType": 5125,
      "count": 14592,
      "max": [
        1236
      ],
      "min": [
        0
      ],
      "type": "SCALAR"
    },
    {
      "bufferView": 2,
      "byteOffset": 322560,
      "componentType": 5126,
      "count": 608,
      "max": [
        19.987400054931641,
        24.540399551391602,
        190.22050476074219
      ],
      "min": [
        -28.215099334716797,
        -23.662099838256836,
        170.05830383300781
      ],
      "type": "VEC3"
    },
    {
      "bufferView": 2,
      "byteOffset": 329856,
      "componentType": 5126,
      "count": 608,
      "max": [
        0.93162882328033447,
        0.93162882328033447,
        0.97495770454406738
      ],
      "min": [
        -0.93162882328033447,
        -0.93162882328033447,
        -0.97494763135910034
      ],
      "type": "VEC3"
    },
    {
      "bufferView": 0,
      "byteOffset": 319332,
      "componentType": 5125,
      "count": 3552,
      "max": [
        607
      ],
      "min": [
        0
      ],
      "type": "SCALAR"
    },
    {
      "bufferView": 2,
      "byteOffset": 337152,
      "componentType": 5126,
      "count": 112,
      "max": [
        20.962600708007812,
        25.441499710083008,
        171.26100158691406
      ],
      "min": [
        -29.037399291992188,
        -24.558500289916992,
        170.06100463867188
      ],
      "type": "VEC3"
    },
    {
      "bufferView": 2,
      "byteOffset": 338496,
      "componentType": 5126,
      "count": 112,
      "max": [
        0.7311815619468689,
        0.7311815619468689,
        0.88739806413650513
      ],
      "min": [
        -0.7311815619468689,
        -0.7601090669631958,
        -0.88739806413650513
      ],
      "type": "VEC3"
    },
    {
      "bufferView": 0,
      "byteOffset": 333540,
      "componentType": 5125,
      "count": 672,
      "max": [
        111
      ],
      "min": [
        0
      ],
      "type": "SCALAR"
    },
    {
      "bufferView": 2,
      "byteOffset": 339840,
      "componentType": 5126,
      "count": 2498,
      "max": [
        22.055700302124023,
        26.619199752807617,
        168.16239929199219
      ],
      "min": [
        -31.377099990844727,
        -26.572999954223633,
        145.10240173339844
      ],
      "type": "VEC3"
    },
    {
      "bufferView": 2,
      "byteOffset": 369816,
      "componentType": 5126,
      "count": 2498,
      "max": [
        0.99998712539672852,
        0.99998009204864502,
        0.73115068674087524
      ],
      "min": [
        -0.99998009204864502,
        -0.99998712539672852,
        -0.73094826936721802
      ],
      "type": "VEC3"
    },
    {
      "bufferView": 0,
      "byteOffset": 336228,
      "componentType": 5125,
      "count": 29184,
      "max": [
        2497
      ],
      "min": [
        0
      ],
      "type": "SCALAR"
    },
    {
      "bufferView": 2,
      "byteOffset": 399792,
      "componentType": 5126,
      "count": 8910,
      "max": [
        21.45159912109375,
        24.650199890136719,
        166.54730224609375
      ],
      "min": [
        -29.422500610351562,
        -26.802400588989258,
        146.00929260253906
      ],
      "type": "VEC3"
    },
    {
      "bufferView": 2,
      "byteOffset": 506712,
      "componentType": 5126,
      "count": 8910,
      "max": [
        0.99994528293609619,
        0.99998855590820312,
        0.73118299245834351
      ],
      "min": [
        -0.99998855590820312,
        -0.99994528293609619,
        -0.73110592365264893
      ],
      "type": "VEC3"
    },
    {
      "bufferView": 0,
      "byteOffset": 452964,
      "componentType": 5125,
      "count": 53448,
      "max": [
        8909
      ],
      "min": [
        0
      ],
      "type": "SCALAR"
    },
    {
      "bufferView": 2,
      "byteOffset": 613632,
      "componentType": 5126,
      "count": 7882,
      "max": [
        21.45159912109375,
        24.650199890136719,
        166.54730224609375
      ],
      "min": [
        -29.332799911499023,
        -26.802400588989258,
        146.00929260253906
      ],
      "type": "VEC3"
    },
    {
      "bufferView": 2,
      "byteOffset": 708216,
      "componentType": 5126,
      "count": 7882,
      "max": [
        0.99994528293609619,
        0.99998855590820312,
        0.73118299245834351
      ],
      "min": [
        -0.99998855590820312,
        -0.99994528293609619,
        -0.73110592365264893
      ],
      "type": "VEC3"
    },
    {
      "bufferView": 0,
      "byteOffset": 666756,
      "componentType": 5125,
      "count": 41400,
      "max": [
        7881
      ],
      "min": [
        0
      ],
      "type": "SCALAR"
    },
    {
      "bufferView": 2,
      "byteOffset": 802800,
      "componentType": 5126,
      "count": 256,
      "max": [
        20.495100021362305,
        24.761299133300781,
        171.15699768066406
      ],
      "min": [
        -28.403099060058594,
        -24.365900039672852,
        145.764892578125
      ],
      "type": "VEC3"
    },
    {
      "bufferView": 2,
      "byteOffset": 805872,
      "componentType": 5126,
      "count": 256,
      "max": [
        0.85820716619491577,
        0.94461381435394287,
        0.75663864612579346
      ],
      "min": [
        -0.85149204730987549,
        -0.9732518196105957,
        -0.753315269947052
      ],
      "type": "VEC3"
    },
    {
      "bufferView": 0,
      "byteOffset": 832356,
      "componentType": 5125,
      "count": 1152,
      "max": [
        255
      ],
      "min": [
        0
      ],
      "type": "SCALAR"
    },
    {
      "bufferView": 2,
      "byteOffset": 808944,
      "componentType": 5126,
      "count": 3373,
      "max": [
        21.582500457763672,
        25.876399993896484,
        168.00979614257812
      ],
      "min": [
        -30.674600601196289,
        -26.695499420166016,
        143.297607421875
      ],
      "type": "VEC3"
    },
    {
      "bufferView": 2,
      "byteOffset": 849420,
      "componentType": 5126,
      "count": 3373,
      "max": [
        0.99998712539672852,
        0.99998009204864502,
        0.73120862245559692
      ],
      "min": [
        -0.99998009204864502,
        -0.99998712539672852,
        -0.73120862245559692
      ],
      "type": "VEC3"
    },
    {
      "bufferView": 0,
      "byteOffset": 836964,
      "componentType": 5125,
      "count": 33072,
      "max": [
        3372
      ],
      "min": [
        0
      ],
      "type": "SCALAR"
    }
  ],
  "asset": {
    "extras": {
      "author": "damostroud151 (https://sketchfab.com/damostroud151)",
      "license": "CC-BY-4.0 (http://creativecommons.org/licenses/by/4.0/)",
      "source": "https://sketchfab.com/3d-models/baby-cot-75479a3c31384f93bf423ebbcd3e631e",
      "title": "Baby Cot"
    },
    "generator": "Sketchfab-8.37.0",
    "version": "2.0"
  },
  "bufferViews": [
    {
      "buffer": 0,
      "byteLength": 969252,
      "byteOffset": 0,
      "name": "floatBufferViews",
      "target": 34963
    },
    {
      "buffer": 0,
      "byteLength": 11032,
      "byteOffset": 969252,
      "byteStride": 8,
      "name": "floatBufferViews",
      "target": 34962
    },
    {
      "buffer": 0,
      "byteLength": 889896,
      "byteOffset": 980284,
      "byteStride": 12,
      "name": "floatBufferViews",
      "target": 34962
    }
  ],
  "buffers": [
    {
      "byteLength": 1870180,
      "uri": "scene.bin"
    }
  ],
  "materials": [
    {
      "doubleSided": true,
      "emissiveFactor": [
        0,
        0,
        0
      ],
      "name": "wire_000000000",
      "pbrMetallicRoughness": {
        "baseColorFactor": [
          0,
          0,
          0,
          1
        ],
        "metallicFactor": 0,
        "roughnessFactor": 0.91675550194980948
      }
    },
    {
      "doubleSided": true,
      "emissiveFactor": [
        0,
        0,
        0
      ],
      "name": "wire_008061138",
      "pbrMetallicRoughness": {
        "baseColorFactor": [
          0.031399999999999997,
          0.2392,
          0.54120000000000001,
          1
        ],
        "metallicFactor": 0,
        "roughnessFactor": 0.91675550194980948
      }
    },
    {
      "doubleSided": true,
      "emissiveFactor": [
        0,
        0,
        0
      ],
      "name": "wire_008110135",
      "pbrMetallicRoughness": {
        "baseColorFactor": [
          0.031399999999999997,
          0.43140000000000001,
          0.52939999999999998,
          1
        ],
        "metallicFactor": 0,
        "roughnessFactor": 0.91675550194980948
      }
    },
    {
      "doubleSided": true,
      "emissiveFactor": [
        0,
        0,
        0
      ],
      "name": "wire_028149177",
      "pbrMetallicRoughness": {
        "baseColorFactor": [
          0.10979999999999999,
          0.58430000000000004,
          0.69410000000000005,
          1
        ],
        "metallicFactor": 0,
        "roughnessFactor": 0.91675550194980948
      }
    },
    {
      "doubleSided": true,
      "emissiveFactor": [
        0,
        0,
        0
      ],
      "name": "wire_047021003",
      "pbrMetallicRoughness": {
        "baseColorFactor": [
          0.18429999999999999,
          0.082400000000000001,
          0.0118,
          1
        ],
        "metallicFactor": 0,
        "roughnessFactor": 0.91675550194980948
      }
    },
    {
      "doubleSided": true,
      "emissiveFactor": [
        0,
        0,
        0
      ],
      "name": "wire_067029004",
      "pbrMetallicRoughness": {
        "baseColorFactor": [
          0.26269999999999999,
          0.1137,
          0.015699999999999999,
          1
        ],
        "metallicFactor": 0,
        "roughnessFactor": 0.91675550194980948
      }
    },
    {
      "doubleSided": true,
      "emissiveFactor": [
        0,
        0,
        0
      ],
      "name": "wire_088144225",
      "pbrMetallicRoughness": {
        "baseColorFactor": [
          0.34510000000000002,
          0.56469999999999998,
          0.88239999999999996,
          1
        ],
        "metallicFactor": 0,
        "roughnessFactor": 0.91675550194980948
      }
    },
    {
      "doubleSided": true,
      "emissiveFactor": [
        0,
        0,
        0
      ],
      "name": "wire_088177027",
      "pbrMetallicRoughness": {
        "baseColorFactor": [
          0.34510000000000002,
          0.69410000000000005,
          0.10589999999999999,
          1
        ],
        "metallicFactor": 0,
        "roughnessFactor": 0.91675550194980948
      }
    },
    {
      "doubleSided": true,
      "emissiveFactor": [
        0,
        0,
        0
      ],
      "name": "wire_135059008",
      "pbrMetallicRoughness": {
        "baseColorFactor": [
          0.52939999999999998,
          0.23139999999999999,
          0.031399999999999997,
          1
        ],
        "metallicFactor": 0,
        "roughnessFactor": 0.91675550194980948
      }
    },
    {
      "doubleSided": true,
      "emissiveFactor": [
        0,
        0,
        0
      ],
      "name": "wire_135110008",
      "pbrMetallicRoughness": {
        "baseColorFactor": [
          0.52939999999999998,
          0.43140000000000001,
          0.031399999999999997,
          1
        ],
        "metallicFactor": 0,
        "roughnessFactor": 0.91675550194980948
      }
    },
    {
      "doubleSided": true,
      "emissiveFactor": [
        0,
        0,
        0
      ],
      "name": "wire_177148027",
      "pbrMetallicRoughness": {
        "baseColorFactor": [
          0.69410000000000005,
          0.58040000000000003,
          0.10589999999999999,
          1
        ],
        "metallicFactor": 0,
        "roughnessFactor": 0.91675550194980948
      }
    },
    {
      "doubleSided": true,
      "emissiveFactor": [
        0,
        0,
        0
      ],
      "name": "wire_255255255",
      "pbrMetallicRoughness": {
        "baseColorFactor": [
          1,
          1,
          1,
          1
        ],
        "metallicFactor": 0,
        "roughnessFactor": 0.91675550194980948
      }
    }
  ],
  "meshes": [
    {
      "primitives": [
        {
          "attributes": {
            "NORMAL": 1,
            "POSITION": 0,
            "TEXCOORD_0": 2
          },
          "indices": 3,
          "material": 10,
          "mode": 4
        }
      ]
    },
    {
      "primitives": [
        {
          "attributes": {
            "NORMAL": 5,
            "POSITION": 4
          },
          "indices": 6,
          "material": 0,
          "mode": 4
        }
      ]
    },
    {
      "primitives": [
        {
          "attributes": {
            "NORMAL": 8,
            "POSITION": 7
          },
          "indices": 9,
          "material": 1,
          "mode": 4
        }
      ]
    },
    {
      "primitives": [
        {
          "attributes": {
            "NORMAL": 11,
            "POSITION": 10
          },
          "indices": 12,
          "material": 2,
          "mode": 4
        }
      ]
    },
    {
      "primitives": [
        {
          "attributes": {
            "NORMAL": 14,
            "POSITION": 13
          },
          "indices": 15,
          "material": 2,
          "mode": 4
        }
      ]
    },
    {
      "primitives": [
        {
          "attributes": {
            "NORMAL": 17,
            "POSITION": 16,
            "TEXCOORD_0": 18
          },
          "indices": 19,
          "material": 3,
          "mode": 4
        }
      ]
    },
    {
      "primitives": [
        {
          "attributes": {
            "NORMAL": 21,
            "POSITION": 20,
            "TEXCOORD_0": 22
          },
          "indices": 23,
          "material": 4,
          "mode": 4
        }
      ]
    },
    {
      "primitives": [
        {
          "attributes": {
            "NORMAL": 25,
            "POSITION": 24
          },
          "indices": 26,
          "material": 5,
          "mode": 4
        }
      ]
    },
    {
      "primitives": [
        {
          "attributes": {
            "NORMAL": 28,
            "POSITION": 27
          },
          "indices": 29,
          "material": 6,
          "mode": 4
        }
      ]
    },
    {
      "primitives": [
        {
          "attributes": {
            "NORMAL": 31,
            "POSITION": 30
          },
          "indices": 32,
          "material": 7,
          "mode": 4
        }
      ]
    },
    {
      "primitives": [
        {
          "attributes": {
            "NORMAL": 34,
            "POSITION": 33
          },
          "indices": 35,
          "material": 8,
          "mode": 4
        }
      ]
    },
    {
      "primitives": [
        {
          "attributes": {
            "NORMAL": 37,
            "POSITION": 36
          },
          "indices": 38,
          "material": 9,
          "mode": 4
        }
      ]
    },
    {
      "primitives": [
        {
          "attributes": {
            "NORMAL": 40,
            "POSITION": 39
          },
          "indices": 41,
          "material": 9,
          "mode": 4
        }
      ]
    },
    {
      "primitives": [
        {
          "attributes": {
            "NORMAL": 43,
            "POSITION": 42
          },
          "indices": 44,
          "material": 10,
          "mode": 4
        }
      ]
    },
    {
      "primitives": [
        {
          "attributes": {
            "NORMAL": 46,
            "POSITION": 45
          },
          "indices": 47,
          "material": 11,
          "mode": 4
        }
      ]
    }
  ],
  "nodes": [
    {
      "children": [
        1
      ],
      "name": "RootNode (gltf orientation matrix)",
      "rotation": [
        -0.70710678118654746,
        -0,
        -0,
        0.70710678118654757
      ]
    },
    {
      "children": [
        2
      ],
      "name": "RootNode (model correction matrix)"
    },
    {
      "children": [
        3,
        4,
        5,
        6,
        7,
        8,
        9,
        10,
        11,
        12,
        13,
        14,
        15,
        16,
        17
      ],
      "name": "BabyCot.obj.cleaner.materialmerger.gles"
    },
    {
      "mesh": 0,
      "name": ""
    },
    {
      "mesh": 1,
      "name": ""
    },
    {
      "mesh": 2,
      "name": ""
    },
    {
      "mesh": 3,
      "name": ""
    },
    {
      "mesh": 4,
      "name": ""
    },
    {
      "mesh": 5,
      "name": ""
    },
    {
      "mesh": 6,
      "name": ""
    },
    {
      "mesh": 7,
      "name": ""
    },
    {
      "mesh": 8,
      "name": ""
    },
    {
      "mesh": 9,
      "name": ""
    },
    {
      "mesh": 10,
      "name": ""
    },
    {
      "mesh": 11,
      "name": ""
    },
    {
      "mesh": 12,
      "name": ""
    },
    {
      "mesh": 13,
      "name": ""
    },
    {
      "mesh": 14,
      "name": ""
    }
  ],
  "scene": 0,
  "scenes": [
    {
      "name": "OSG_Scene",
      "nodes": [
        0
      ]
    }
  ]
}

