{
  "accessors": [
    {
      "bufferView": 2,
      "componentType": 5126,
      "count": 2431,
      "max": [
        1.0471142530441284,
        0.94959884881973267,
        0.94959884881973267
      ],
      "min": [
        0.89873069524765015,
        -0.94959884881973267,
        -0.94959884881973267
      ],
      "type": "VEC3"
    },
    {
      "bufferView": 2,
      "byteOffset": 29172,
      "componentType": 5126,
      "count": 2431,
      "max": [
        1,
        1,
        1
      ],
      "min": [
        -1,
        -1,
        -1
      ],
      "type": "VEC3"
    },
    {
      "bufferView": 1,
      "componentType": 5126,
      "count": 2431,
      "max": [
        0.99000000953674316,
        0.62415015697479248
      ],
      "min": [
        0.18489076197147369,
        0.001409582793712616
      ],
      "type": "VEC2"
    },
    {
      "bufferView": 0,
      "componentType": 5125,
      "count": 7329,
      "max": [
        2430
      ],
      "min": [
        0
      ],
      "type": "SCALAR"
    },
    {
      "bufferView": 2,
      "byteOffset": 58344,
      "componentType": 5126,
      "count": 879,
      "max": [
        1.0083737373352051,
        1,
        1
      ],
      "min": [
        -1.3065800666809082,
        -1.2002445459365845,
        -1
      ],
      "type": "VEC3"
    },
    {
      "bufferView": 2,
      "byteOffset": 68892,
      "componentType": 5126,
      "count": 879,
      "max": [
        1,
        1,
        1
      ],
      "min": [
        -1,
        -1,
        -1
      ],
      "type": "VEC3"
    },
    {
      "bufferView": 1,
      "byteOffset": 19448,
      "componentType": 5126,
      "count": 879,
      "max": [
        0.99976032972335815,
        0.99997532367706299
      ],
      "min": [
        4.279055428924039e-05,
        2.4594832211732864e-05
      ],
      "type": "VEC2"
    },
    {
      "bufferView": 0,
      "byteOffset": 29316,
      "componentType": 5125,
      "count": 2187,
      "max": [
        878
      ],
      "min": [
        0
      ],
      "type": "SCALAR"
    },
    {
      "bufferView": 2,
      "byteOffset": 79440,
      "componentType": 5126,
      "count": 265,
      "max": [
        1.0684391260147095,
        0.86696738004684448,
        0.87980514764785767
      ],
      "min": [
        0.96446490287780762,
        -0.86352246999740601,
        -0.45986276865005493
      ],
      "type": "VEC3"
    },
    {
      "bufferView": 2,
      "byteOffset": 82620,
      "componentType": 5126,
      "count": 265,
      "max": [
        1,
        0.5861857533454895,
        0.6882089376449585
      ],
      "min": [
        0.69028455018997192,
        -0.5861857533454895,
        -0.6882089376449585
      ],
      "type": "VEC3"
    },
    {
      "bufferView": 1,
      "byteOffset": 26480,
      "componentType": 5126,
      "count": 265,
      "max": [
        0.86864322423934937,
        0.98882007598876953
      ],
      "min": [
        0.11867603659629822,
        -0.005355536937713623
      ],
      "type": "VEC2"
    },
    {
      "bufferView": 0,
      "byteOffset": 38064,
      "componentType": 5125,
      "count": 1440,
      "max": [
        264
      ],
      "min": [
        0
      ],
      "type": "SCALAR"
    },
    {
      "bufferView": 2,
      "byteOffset": 85800,
      "componentType": 5126,
      "count": 16,
      "max": [
        0.97397863864898682,
        0.89031940698623657,
        -0.54949188232421875
      ],
      "min": [
        0.96003991365432739,
        -0.84517145156860352,
        -0.90457963943481445
      ],
      "type": "VEC3"
    },
    {
      "bufferView": 2,
      "byteOffset": 85992,
      "componentType": 5126,
      "count": 16,
      "max": [
        1,
        0,
        0.1186596155166626
      ],
      "min": [
        0.99293500185012817,
        0,
        -0
      ],
      "type": "VEC3"
    },
    {
      "bufferView": 1,
      "byteOffset": 28600,
      "componentType": 5126,
      "count": 16,
      "max": [
        0.34091690182685852,
        0.021703869104385376
      ],
      "min": [
        0.337363600730896,
        0.00301351398229599
      ],
      "type": "VEC2"
    },
    {
      "bufferView": 0,
      "byteOffset": 43824,
      "componentType": 5125,
      "count": 24,
      "max": [
        15
      ],
      "min": [
        0
      ],
      "type": "SCALAR"
    },
    {
      "bufferView": 2,
      "byteOffset": 86184,
      "componentType": 5126,
      "count": 64,
      "max": [
        1.0083737373352051,
        -0.47607892751693726,
        -0.84858429431915283
      ],
      "min": [
        1.0083737373352051,
        -0.67706412076950073,
        -0.88473087549209595
      ],
      "type": "VEC3"
    },
    {
      "bufferView": 2,
      "byteOffset": 86952,
      "componentType": 5126,
      "count": 64,
      "max": [
        1,
        0,
        2.169052095268853e-06
      ],
      "min": [
        1,
        0,
        -8.0923490486384253e-07
      ],
      "type": "VEC3"
    },
    {
      "bufferView": 1,
      "byteOffset": 28728,
      "componentType": 5126,
      "count": 64,
      "max": [
        0.40364781022071838,
        0.62410402297973633
      ],
      "min": [
        0.19253991544246674,
        0.41299620270729065
      ],
      "type": "VEC2"
    },
    {
      "bufferView": 0,
      "byteOffset": 43920,
      "componentType": 5125,
      "count": 180,
      "max": [
        63
      ],
      "min": [
        0
      ],
      "type": "SCALAR"
    }
  ],
  "asset": {
    "extras": {
      "author": "TLOT_Entertainment (https://sketchfab.com/TLOT_Entertainment)",
      "license": "CC-BY-4.0 (http://creativecommons.org/licenses/by/4.0/)",
      "source": "https://sketchfab.com/3d-models/old-tv-fa6282943eb74cd8b82f6a54a39d8383",
      "title": "Old TV"
    },
    "generator": "Sketchfab-8.32.0",
    "version": "2.0"
  },
  "bufferViews": [
    {
      "buffer": 0,
      "byteLength": 44640,
      "byteOffset": 0,
      "name": "floatBufferViews",
      "target": 34963
    },
    {
      "buffer": 0,
      "byteLength": 29240,
      "byteOffset": 44640,
      "byteStride": 8,
      "name": "floatBufferViews",
      "target": 34962
    },
    {
      "buffer": 0,
      "byteLength": 87720,
      "byteOffset": 73880,
      "byteStride": 12,
      "name": "floatBufferViews",
      "target": 34962
    }
  ],
  "buffers": [
    {
      "byteLength": 161600,
      "uri": "scene.bin"
    }
  ],
  "images": [
    {
      "uri": "textures/Metal_baseColor.png"
    },
    {
      "uri": "textures/Pantalla_baseColor.png"
    }
  ],
  "materials": [
    {
      "doubleSided": true,
      "emissiveFactor": [
        0,
        0,
        0
      ],
      "name": "Metal",
      "pbrMetallicRoughness": {
        "baseColorFactor": [
          1,
          1,
          1,
          1
        ],
        "baseColorTexture": {
          "index": 0,
          "texCoord": 0
        },
        "metallicFactor": 1,
        "roughnessFactor": 0.042617960426179602
      }
    },
    {
      "doubleSided": true,
      "emissiveFactor": [
        0,
        0,
        0
      ],
      "name": "Madera",
      "pbrMetallicRoughness": {
        "baseColorFactor": [
          1,
          1,
          1,
          1
        ],
        "baseColorTexture": {
          "index": 0,
          "texCoord": 0
        },
        "metallicFactor": 0,
        "roughnessFactor": 0.31818200000000002
      }
    },
    {
      "doubleSided": true,
      "emissiveFactor": [
        1,
        1,
        1
      ],
      "emissiveTexture": {
        "index": 1,
        "texCoord": 0
      },
      "name": "Pantalla",
      "pbrMetallicRoughness": {
        "baseColorFactor": [
          1,
          1,
          1,
          1
        ],
        "baseColorTexture": {
          "index": 1,
          "texCoord": 0
        },
        "metallicFactor": 1,
        "roughnessFactor": 1
      }
    },
    {
      "doubleSided": true,
      "emissiveFactor": [
        1,
        1,
        1
      ],
      "emissiveTexture": {
        "index": 0,
        "texCoord": 0
      },
      "name": "material",
      "pbrMetallicRoughness": {
        "baseColorFactor": [
          1,
          1,
          1,
          1
        ],
        "baseColorTexture": {
          "index": 0,
          "texCoord": 0
        },
        "metallicFactor": 1,
        "roughnessFactor": 1
      }
    },
    {
      "doubleSided": true,
      "emissiveFactor": [
        0,
        0,
        0
      ],
      "name": "Metal.001",
      "pbrMetallicRoughness": {
        "baseColorFactor": [
          1,
          1,
          1,
          1
        ],
        "baseColorTexture": {
          "index": 0,
          "texCoord": 0
        },
        "metallicFactor": 1,
        "roughnessFactor": 0.15220700152207001
      }
    }
  ],
  "meshes": [
    {
      "primitives": [
        {
          "attributes": {
            "NORMAL": 1,
            "POSITION": 0,
            "TEXCOORD_0": 2
          },
          "indices": 3,
          "material": 0,
          "mode": 4
        }
      ]
    },
    {
      "primitives": [
        {
          "attributes": {
            "NORMAL": 5,
            "POSITION": 4,
            "TEXCOORD_0": 6
          },
          "indices": 7,
          "material": 1,
          "mode": 4
        }
      ]
    },
    {
      "primitives": [
        {
          "attributes": {
            "NORMAL": 9,
            "POSITION": 8,
            "TEXCOORD_0": 10
          },
          "indices": 11,
          "material": 2,
          "mode": 4
        }
      ]
    },
    {
      "primitives": [
        {
          "attributes": {
            "NORMAL": 13,
            "POSITION": 12,
            "TEXCOORD_0": 14
          },
          "indices": 15,
          "material": 3,
          "mode": 4
        }
      ]
    },
    {
      "primitives": [
        {
          "attributes": {
            "NORMAL": 17,
            "POSITION": 16,
            "TEXCOORD_0": 18
          },
          "indices": 19,
          "material": 4,
          "mode": 4
        }
      ]
    }
  ],
  "nodes": [
    {
      "children": [
        1
      ],
      "name": "RootNode (gltf orientation matrix)",
      "rotation": [
        -0.70710678118654746,
        -0,
        -0,
        0.70710678118654757
      ]
    },
    {
      "children": [
        2
      ],
      "matrix": [
        0.61507445573806763,
        0,
        0,
        0,
        0,
        0.61507445573806763,
        0,
        0,
        0,
        0,
        0.61507445573806763,
        0,
        0,
        0,
        0,
        1
      ],
      "name": "RootNode (model correction matrix)"
    },
    {
      "children": [
        3
      ],
      "name": "root"
    },
    {
      "children": [
        4
      ],
      "matrix": [
        1,
        0,
        0,
        0,
        0,
        2.2204460492503131e-16,
        1,
        0,
        0,
        -1,
        2.2204460492503131e-16,
        0,
        0,
        0,
        0,
        1
      ],
      "name": "GLTF_SceneRootNode"
    },
    {
      "children": [
        5,
        6,
        7,
        8,
        9
      ],
      "matrix": [
        1,
        0,
        0,
        0,
        0,
        1,
        0,
        0,
        0,
        0,
        1.6931148767471313,
        0,
        0,
        0,
        0,
        1
      ],
      "name": "TV_1"
    },
    {
      "mesh": 0,
      "name": ""
    },
    {
      "mesh": 1,
      "name": ""
    },
    {
      "mesh": 2,
      "name": ""
    },
    {
      "mesh": 3,
      "name": ""
    },
    {
      "mesh": 4,
      "name": ""
    }
  ],
  "samplers": [
    {
      "magFilter": 9729,
      "minFilter": 9987,
      "wrapS": 10497,
      "wrapT": 10497
    }
  ],
  "scene": 0,
  "scenes": [
    {
      "name": "OSG_Scene",
      "nodes": [
        0
      ]
    }
  ],
  "textures": [
    {
      "sampler": 0,
      "source": 0
    },
    {
      "sampler": 0,
      "source": 1
    }
  ]
}

