{
  "accessors": [
    {
      "bufferView": 3,
      "componentType": 5126,
      "count": 7435,
      "max": [
        176.17582702636719,
        119.87887573242188,
        387.17935180664062
      ],
      "min": [
        -176.17582702636719,
        -545.69403076171875,
        -387.17935180664062
      ],
      "type": "VEC3"
    },
    {
      "bufferView": 3,
      "byteOffset": 89220,
      "componentType": 5126,
      "count": 7435,
      "max": [
        1,
        1,
        1
      ],
      "min": [
        -1,
        -1,
        -1
      ],
      "type": "VEC3"
    },
    {
      "bufferView": 4,
      "componentType": 5126,
      "count": 7435,
      "max": [
        1,
        1,
        0.77117568254470825,
        1
      ],
      "min": [
        -0.76922786235809326,
        -1,
        -1,
        -1
      ],
      "type": "VEC4"
    },
    {
      "bufferView": 2,
      "componentType": 5126,
      "count": 7435,
      "max": [
        0.99825006723403931,
        0.99825090169906616
      ],
      "min": [
        0.0017499570967629552,
        0.0017491118051111698
      ],
      "type": "VEC2"
    },
    {
      "bufferView": 2,
      "byteOffset": 59480,
      "componentType": 5126,
      "count": 7435,
      "max": [
        4.4358968734741211,
        4.3219780921936035
      ],
      "min": [
        -3.4358968734741211,
        -3.6357154846191406
      ],
      "type": "VEC2"
    },
    {
      "bufferView": 2,
      "byteOffset": 118960,
      "componentType": 5126,
      "count": 7435,
      "max": [
        0.99826759099960327,
        0.99826765060424805
      ],
      "min": [
        0.0017324044601991773,
        0.0017324085347354412
      ],
      "type": "VEC2"
    },
    {
      "bufferView": 2,
      "byteOffset": 178440,
      "componentType": 5126,
      "count": 7435,
      "max": [
        1.3959600925445557,
        1.9977027177810669
      ],
      "min": [
        -0.48691445589065552,
        -0.99804878234863281
      ],
      "type": "VEC2"
    },
    {
      "bufferView": 1,
      "componentType": 5125,
      "count": 20184,
      "max": [
        7434
      ],
      "min": [
        0
      ],
      "type": "SCALAR"
    },
    {
      "bufferView": 5,
      "componentType": 5126,
      "count": 10,
      "max": [
        1,
        0,
        0,
        0,
        0,
        1,
        0,
        0,
        0,
        0,
        1,
        0,
        0,
        0,
        1.7707322835922241,
        1
      ],
      "min": [
        0.0099999997764825821,
        0,
        0,
        0,
        0,
        0.0099999997764825821,
        0,
        0,
        0,
        0,
        0.0099999997764825821,
        0,
        -1.67950439453125,
        -0.087429411709308624,
        -1.7707322835922241,
        1
      ],
      "type": "MAT4"
    },
    {
      "bufferView": 0,
      "componentType": 5123,
      "count": 7435,
      "max": [
        8,
        1,
        1,
        1
      ],
      "min": [
        1,
        1,
        1,
        1
      ],
      "type": "VEC4"
    },
    {
      "bufferView": 4,
      "byteOffset": 118960,
      "componentType": 5126,
      "count": 7435,
      "max": [
        1,
        0,
        0,
        0
      ],
      "min": [
        1,
        0,
        0,
        0
      ],
      "type": "VEC4"
    },
    {
      "bufferView": 6,
      "componentType": 5126,
      "count": 121,
      "max": [
        3.75
      ],
      "min": [
        0
      ],
      "type": "SCALAR"
    },
    {
      "bufferView": 8,
      "componentType": 5126,
      "count": 121,
      "max": [
        1.4685523828216223e-39,
        6.3325097992377781e-40,
        0.16231217980384827,
        1
      ],
      "min": [
        -2.9153299888061014e-39,
        -1.4324367175005788e-39,
        -0.22942472994327545,
        0.97332638502120972
      ],
      "type": "VEC4"
    },
    {
      "bufferView": 6,
      "byteOffset": 484,
      "componentType": 5126,
      "count": 117,
      "max": [
        3.75
      ],
      "min": [
        0
      ],
      "type": "SCALAR"
    },
    {
      "bufferView": 7,
      "componentType": 5126,
      "count": 117,
      "max": [
        2.3008027076721191,
        -0.087429165840148926,
        1.7707322835922241
      ],
      "min": [
        0.53000211715698242,
        -0.087429165840148926,
        1.7707322835922241
      ],
      "type": "VEC3"
    },
    {
      "bufferView": 6,
      "byteOffset": 952,
      "componentType": 5126,
      "count": 121,
      "max": [
        3.75
      ],
      "min": [
        0
      ],
      "type": "SCALAR"
    },
    {
      "bufferView": 8,
      "byteOffset": 1936,
      "componentType": 5126,
      "count": 121,
      "max": [
        1.4685523828216223e-39,
        6.3325097992377781e-40,
        0.16231217980384827,
        1
      ],
      "min": [
        -2.9153299888061014e-39,
        -1.4324367175005788e-39,
        -0.22942472994327545,
        0.97332638502120972
      ],
      "type": "VEC4"
    },
    {
      "bufferView": 6,
      "byteOffset": 1436,
      "componentType": 5126,
      "count": 117,
      "max": [
        3.75
      ],
      "min": [
        0
      ],
      "type": "SCALAR"
    },
    {
      "bufferView": 7,
      "byteOffset": 1404,
      "componentType": 5126,
      "count": 117,
      "max": [
        2.3008027076721191,
        -0.087429165840148926,
        -1.7707322835922241
      ],
      "min": [
        0.53000211715698242,
        -0.087429165840148926,
        -1.7707322835922241
      ],
      "type": "VEC3"
    }
  ],
  "animations": [
    {
      "channels": [
        {
          "sampler": 0,
          "target": {
            "node": 11,
            "path": "rotation"
          }
        },
        {
          "sampler": 1,
          "target": {
            "node": 9,
            "path": "translation"
          }
        },
        {
          "sampler": 2,
          "target": {
            "node": 15,
            "path": "rotation"
          }
        },
        {
          "sampler": 3,
          "target": {
            "node": 13,
            "path": "translation"
          }
        }
      ],
      "name": "drawer_skeleton|drawer_skeletonAction",
      "samplers": [
        {
          "input": 11,
          "interpolation": "LINEAR",
          "output": 12
        },
        {
          "input": 13,
          "interpolation": "LINEAR",
          "output": 14
        },
        {
          "input": 15,
          "interpolation": "LINEAR",
          "output": 16
        },
        {
          "input": 17,
          "interpolation": "LINEAR",
          "output": 18
        }
      ]
    }
  ],
  "asset": {
    "extras": {
      "author": "Blender3D (https://sketchfab.com/Blender3D)",
      "license": "CC-BY-4.0 (http://creativecommons.org/licenses/by/4.0/)",
      "source": "https://sketchfab.com/3d-models/basic-drawer-a643a41c1d2b4e4ca9be07d58ce85060",
      "title": "Basic Drawer"
    },
    "generator": "Sketchfab-5.68.0",
    "version": "2.0"
  },
  "bufferViews": [
    {
      "buffer": 0,
      "byteLength": 59480,
      "byteOffset": 0,
      "byteStride": 8,
      "name": "shortBufferViews",
      "target": 34962
    },
    {
      "buffer": 0,
      "byteLength": 80736,
      "byteOffset": 59480,
      "name": "floatBufferViews",
      "target": 34963
    },
    {
      "buffer": 0,
      "byteLength": 237920,
      "byteOffset": 140216,
      "byteStride": 8,
      "name": "floatBufferViews",
      "target": 34962
    },
    {
      "buffer": 0,
      "byteLength": 178440,
      "byteOffset": 378136,
      "byteStride": 12,
      "name": "floatBufferViews",
      "target": 34962
    },
    {
      "buffer": 0,
      "byteLength": 237920,
      "byteOffset": 556576,
      "byteStride": 16,
      "name": "floatBufferViews",
      "target": 34962
    },
    {
      "buffer": 0,
      "byteLength": 640,
      "byteOffset": 794496,
      "byteStride": 64,
      "name": "floatBufferViews"
    },
    {
      "buffer": 0,
      "byteLength": 1904,
      "byteOffset": 795136,
      "name": "floatBufferViews"
    },
    {
      "buffer": 0,
      "byteLength": 2808,
      "byteOffset": 797040,
      "byteStride": 12,
      "name": "floatBufferViews"
    },
    {
      "buffer": 0,
      "byteLength": 3872,
      "byteOffset": 799848,
      "byteStride": 16,
      "name": "floatBufferViews"
    }
  ],
  "buffers": [
    {
      "byteLength": 803720,
      "uri": "scene.bin"
    }
  ],
  "images": [
    {
      "uri": "textures/Scene_-_Root_baseColor.jpeg"
    },
    {
      "uri": "textures/Scene_-_Root_metallicRoughness.png"
    },
    {
      "uri": "textures/Scene_-_Root_normal.jpeg"
    }
  ],
  "materials": [
    {
      "doubleSided": true,
      "name": "Scene_-_Root",
      "normalTexture": {
        "index": 2,
        "scale": 0.66303031229999998,
        "texCoord": 0
      },
      "occlusionTexture": {
        "index": 1,
        "strength": 1,
        "texCoord": 0
      },
      "pbrMetallicRoughness": {
        "baseColorFactor": [
          1,
          1,
          1,
          1
        ],
        "baseColorTexture": {
          "index": 0,
          "texCoord": 0
        },
        "metallicFactor": 0.57212122139999999,
        "metallicRoughnessTexture": {
          "index": 1,
          "texCoord": 0
        },
        "roughnessFactor": 0.61454546379999997
      }
    }
  ],
  "meshes": [
    {
      "name": "drawer__0",
      "primitives": [
        {
          "attributes": {
            "JOINTS_0": 9,
            "NORMAL": 1,
            "POSITION": 0,
            "TANGENT": 2,
            "TEXCOORD_0": 3,
            "TEXCOORD_1": 4,
            "TEXCOORD_2": 5,
            "TEXCOORD_3": 6,
            "WEIGHTS_0": 10
          },
          "indices": 7,
          "material": 0,
          "mode": 4
        }
      ]
    }
  ],
  "nodes": [
    {
      "children": [
        1
      ],
      "name": "RootNode (gltf orientation matrix)",
      "rotation": [
        -0.70710678118654746,
        -0,
        -0,
        0.70710678118654757
      ]
    },
    {
      "children": [
        2
      ],
      "name": "RootNode (model correction matrix)"
    },
    {
      "children": [
        3
      ],
      "matrix": [
        1,
        0,
        0,
        0,
        0,
        0,
        1,
        0,
        0,
        -1,
        0,
        0,
        0,
        0,
        0,
        1
      ],
      "name": "Drawer.fbx"
    },
    {
      "children": [
        4
      ],
      "name": ""
    },
    {
      "children": [
        5,
        19
      ],
      "name": "RootNode"
    },
    {
      "children": [
        6
      ],
      "name": "drawer_skeleton",
      "rotation": [
        -0.7071068286895752,
        0,
        0,
        0.70710670948028564
      ],
      "scale": [
        100,
        100,
        100
      ],
      "translation": [
        53.000213623046875,
        2.384185791015625e-05,
        177.07322692871094
      ]
    },
    {
      "children": [
        7,
        18,
        17
      ],
      "name": ""
    },
    {
      "children": [
        8
      ],
      "name": "_rootJoint"
    },
    {
      "children": [
        9,
        13
      ],
      "name": "Bone.002_00",
      "rotation": [
        0.7071068286895752,
        0,
        0,
        0.70710670948028564
      ],
      "translation": [
        -0.53000211715698242,
        1.7707322835922241,
        0.087429165840148926
      ]
    },
    {
      "children": [
        10
      ],
      "name": "Bone_01",
      "translation": [
        0.53000211715698242,
        -0.087429165840148926,
        1.7707322835922241
      ]
    },
    {
      "children": [
        11
      ],
      "name": "Bone.003_02",
      "translation": [
        1.0441229343414307,
        0.0057432651519775391,
        -1.1920928955078125e-07
      ]
    },
    {
      "children": [
        12
      ],
      "name": "Bone.004_03",
      "translation": [
        0.10537934303283691,
        -0.00019824504852294922,
        -2.384185791015625e-07
      ]
    },
    {
      "name": "Bone.004_end_08",
      "translation": [
        0,
        0.3027934730052948,
        0
      ]
    },
    {
      "children": [
        14
      ],
      "name": "Bone.001_04",
      "translation": [
        0.53000211715698242,
        -0.087429165840148926,
        -1.7707322835922241
      ]
    },
    {
      "children": [
        15
      ],
      "name": "Bone.005_05",
      "translation": [
        1.0441229343414307,
        0.0057432651519775391,
        2.384185791015625e-07
      ]
    },
    {
      "children": [
        16
      ],
      "name": "Bone.006_06",
      "translation": [
        0.10537934303283691,
        -0.00019812583923339844,
        0
      ]
    },
    {
      "name": "Bone.006_end_07",
      "translation": [
        0,
        0.30279350280761719,
        0
      ]
    },
    {
      "matrix": [
        100,
        0,
        0,
        0,
        0,
        6.1232339957367661e-15,
        -100,
        0,
        0,
        100,
        6.1232339957367661e-15,
        0,
        0,
        -212.90756416320801,
        0,
        1
      ],
      "name": ""
    },
    {
      "mesh": 0,
      "name": "",
      "skin": 0
    },
    {
      "name": "drawer",
      "rotation": [
        -0.7071068286895752,
        0,
        0,
        0.70710670948028564
      ],
      "scale": [
        100,
        100,
        100
      ],
      "translation": [
        0,
        -212.90757751464844,
        0
      ]
    }
  ],
  "samplers": [
    {
      "magFilter": 9729,
      "minFilter": 9987,
      "wrapS": 10497,
      "wrapT": 10497
    }
  ],
  "scene": 0,
  "scenes": [
    {
      "name": "OSG_Scene",
      "nodes": [
        0
      ]
    }
  ],
  "skins": [
    {
      "inverseBindMatrices": 8,
      "joints": [
        7,
        8,
        9,
        10,
        11,
        12,
        13,
        14,
        15,
        16
      ],
      "skeleton": 7
    }
  ],
  "textures": [
    {
      "sampler": 0,
      "source": 0
    },
    {
      "sampler": 0,
      "source": 1
    },
    {
      "sampler": 0,
      "source": 2
    }
  ]
}

