{
  "accessors": [
    {
      "bufferView": 2,
      "componentType": 5126,
      "count": 21355,
      "max": [
        0.92353075742721558,
        4.6381688117980957,
        1.1403564214706421
      ],
      "min": [
        -0.94138360023498535,
        -1.2121307849884033,
        -0.44444945454597473
      ],
      "type": "VEC3"
    },
    {
      "bufferView": 2,
      "byteOffset": 256260,
      "componentType": 5126,
      "count": 21355,
      "max": [
        0.99999547004699707,
        0.99959135055541992,
        0.99998533725738525
      ],
      "min": [
        -0.9999355673789978,
        -0.99894869327545166,
        -0.99998867511749268
      ],
      "type": "VEC3"
    },
    {
      "bufferView": 3,
      "componentType": 5126,
      "count": 21355,
      "max": [
        0.99999880790710449,
        0.99989926815032959,
        0.99994432926177979,
        1
      ],
      "min": [
        -0.99997413158416748,
        -0.99993836879730225,
        -0.99998950958251953,
        -1
      ],
      "type": "VEC4"
    },
    {
      "bufferView": 1,
      "componentType": 5126,
      "count": 21355,
      "max": [
        0.99993002414703369,
        0.99980157613754272
      ],
      "min": [
        7.4340314313303679e-05,
        0.00051364983664825559
      ],
      "type": "VEC2"
    },
    {
      "bufferView": 0,
      "componentType": 5125,
      "count": 66480,
      "max": [
        21354
      ],
      "min": [
        0
      ],
      "type": "SCALAR"
    },
    {
      "bufferView": 2,
      "byteOffset": 512520,
      "componentType": 5126,
      "count": 11075,
      "max": [
        0.76856058835983276,
        0.57930570840835571,
        0.98837554454803467
      ],
      "min": [
        -0.69991898536682129,
        -2.4659063816070557,
        0.013215619139373302
      ],
      "type": "VEC3"
    },
    {
      "bufferView": 2,
      "byteOffset": 645420,
      "componentType": 5126,
      "count": 11075,
      "max": [
        0.99995666742324829,
        0.99579888582229614,
        0.99991810321807861
      ],
      "min": [
        -0.99979835748672485,
        -0.99951344728469849,
        -0.9995923638343811
      ],
      "type": "VEC3"
    },
    {
      "bufferView": 3,
      "byteOffset": 341680,
      "componentType": 5126,
      "count": 11075,
      "max": [
        0.99999713897705078,
        0.9997551441192627,
        0.99998992681503296,
        1
      ],
      "min": [
        -0.99997055530548096,
        -0.99996727705001831,
        -0.99977725744247437,
        -1
      ],
      "type": "VEC4"
    },
    {
      "bufferView": 1,
      "byteOffset": 170840,
      "componentType": 5126,
      "count": 11075,
      "max": [
        0.99991369247436523,
        0.99982881546020508
      ],
      "min": [
        0.00028350146021693945,
        0.00037288971361704171
      ],
      "type": "VEC2"
    },
    {
      "bufferView": 0,
      "byteOffset": 265920,
      "componentType": 5125,
      "count": 25464,
      "max": [
        11074
      ],
      "min": [
        0
      ],
      "type": "SCALAR"
    },
    {
      "bufferView": 2,
      "byteOffset": 778320,
      "componentType": 5126,
      "count": 11584,
      "max": [
        0.98361784219741821,
        4.6352629661560059,
        0.99918848276138306
      ],
      "min": [
        -1.0734483003616333,
        -1.3611172437667847,
        -0.15727408230304718
      ],
      "type": "VEC3"
    },
    {
      "bufferView": 2,
      "byteOffset": 917328,
      "componentType": 5126,
      "count": 11584,
      "max": [
        0.99999648332595825,
        0.9997018575668335,
        0.99996256828308105
      ],
      "min": [
        -0.99999648332595825,
        -0.99999868869781494,
        -0.9998161792755127
      ],
      "type": "VEC3"
    },
    {
      "bufferView": 3,
      "byteOffset": 518880,
      "componentType": 5126,
      "count": 11584,
      "max": [
        0.99996978044509888,
        0.99976629018783569,
        0.99996817111968994,
        1
      ],
      "min": [
        -0.99999457597732544,
        -0.99999505281448364,
        -0.99998408555984497,
        -1
      ],
      "type": "VEC4"
    },
    {
      "bufferView": 1,
      "byteOffset": 259440,
      "componentType": 5126,
      "count": 11584,
      "max": [
        0.99994957447052002,
        0.9997556209564209
      ],
      "min": [
        0.00013790464436169714,
        0.00019256786617916077
      ],
      "type": "VEC2"
    },
    {
      "bufferView": 0,
      "byteOffset": 367776,
      "componentType": 5125,
      "count": 27996,
      "max": [
        11583
      ],
      "min": [
        0
      ],
      "type": "SCALAR"
    }
  ],
  "asset": {
    "extras": {
      "author": "CoryRichards (https://sketchfab.com/CoryRichards)",
      "license": "CC-BY-4.0 (http://creativecommons.org/licenses/by/4.0/)",
      "source": "https://sketchfab.com/3d-models/samara-the-ring-57ab1a21d63744dfab12c54c7d139ddb",
      "title": "Samara (The Ring)"
    },
    "generator": "Sketchfab-7.17.0",
    "version": "2.0"
  },
  "bufferViews": [
    {
      "buffer": 0,
      "byteLength": 479760,
      "byteOffset": 0,
      "name": "floatBufferViews",
      "target": 34963
    },
    {
      "buffer": 0,
      "byteLength": 352112,
      "byteOffset": 479760,
      "byteStride": 8,
      "name": "floatBufferViews",
      "target": 34962
    },
    {
      "buffer": 0,
      "byteLength": 1056336,
      "byteOffset": 831872,
      "byteStride": 12,
      "name": "floatBufferViews",
      "target": 34962
    },
    {
      "buffer": 0,
      "byteLength": 704224,
      "byteOffset": 1888208,
      "byteStride": 16,
      "name": "floatBufferViews",
      "target": 34962
    }
  ],
  "buffers": [
    {
      "byteLength": 2592432,
      "uri": "scene.bin"
    }
  ],
  "images": [
    {
      "uri": "textures/Dress_low_baseColor.png"
    },
    {
      "uri": "textures/Dress_low_metallicRoughness.png"
    },
    {
      "uri": "textures/Dress_low_normal.png"
    },
    {
      "uri": "textures/Hair_low_baseColor.png"
    },
    {
      "uri": "textures/Hair_low_metallicRoughness.png"
    },
    {
      "uri": "textures/Hair_low_normal.png"
    },
    {
      "uri": "textures/Body_low_baseColor.png"
    },
    {
      "uri": "textures/Body_low_metallicRoughness.png"
    },
    {
      "uri": "textures/Body_low_normal.png"
    }
  ],
  "materials": [
    {
      "doubleSided": true,
      "name": "Dress_low",
      "normalTexture": {
        "index": 2,
        "scale": 1,
        "texCoord": 0
      },
      "pbrMetallicRoughness": {
        "baseColorFactor": [
          1,
          1,
          1,
          1
        ],
        "baseColorTexture": {
          "index": 0,
          "texCoord": 0
        },
        "metallicFactor": 1,
        "metallicRoughnessTexture": {
          "index": 1,
          "texCoord": 0
        },
        "roughnessFactor": 1
      }
    },
    {
      "doubleSided": true,
      "emissiveFactor": [
        0,
        0,
        0
      ],
      "name": "Hair_low",
      "normalTexture": {
        "index": 5,
        "scale": 1,
        "texCoord": 0
      },
      "pbrMetallicRoughness": {
        "baseColorFactor": [
          1,
          1,
          1,
          1
        ],
        "baseColorTexture": {
          "index": 3,
          "texCoord": 0
        },
        "metallicFactor": 0.80000000000000004,
        "metallicRoughnessTexture": {
          "index": 4,
          "texCoord": 0
        },
        "roughnessFactor": 1
      }
    },
    {
      "doubleSided": true,
      "emissiveFactor": [
        0,
        0,
        0
      ],
      "name": "Body_low",
      "normalTexture": {
        "index": 8,
        "scale": 1,
        "texCoord": 0
      },
      "pbrMetallicRoughness": {
        "baseColorFactor": [
          1,
          1,
          1,
          1
        ],
        "baseColorTexture": {
          "index": 6,
          "texCoord": 0
        },
        "metallicFactor": 1,
        "metallicRoughnessTexture": {
          "index": 7,
          "texCoord": 0
        },
        "roughnessFactor": 1
      }
    }
  ],
  "meshes": [
    {
      "name": "Dress_low_Dress_low_0",
      "primitives": [
        {
          "attributes": {
            "NORMAL": 1,
            "POSITION": 0,
            "TANGENT": 2,
            "TEXCOORD_0": 3
          },
          "indices": 4,
          "material": 0,
          "mode": 4
        }
      ]
    },
    {
      "name": "Hair_low_Hair_low_0",
      "primitives": [
        {
          "attributes": {
            "NORMAL": 6,
            "POSITION": 5,
            "TANGENT": 7,
            "TEXCOORD_0": 8
          },
          "indices": 9,
          "material": 1,
          "mode": 4
        }
      ]
    },
    {
      "name": "Body_low_Body_low_0",
      "primitives": [
        {
          "attributes": {
            "NORMAL": 11,
            "POSITION": 10,
            "TANGENT": 12,
            "TEXCOORD_0": 13
          },
          "indices": 14,
          "material": 2,
          "mode": 4
        }
      ]
    }
  ],
  "nodes": [
    {
      "children": [
        1
      ],
      "name": "RootNode (gltf orientation matrix)",
      "rotation": [
        -0.70710678118654746,
        -0,
        -0,
        0.70710678118654757
      ]
    },
    {
      "children": [
        2
      ],
      "matrix": [
        -0.99998468160629272,
        0.0055396938696503639,
        1.6081226229577292e-16,
        0,
        0.0055396938696503639,
        0.99998468160629272,
        2.832769343193999e-16,
        0,
        -1.5924052648769356e-16,
        2.8416346017781993e-16,
        -1,
        0,
        -0.087905310094356537,
        0.0002430621680105105,
        2.1722652912139893,
        1
      ],
      "name": "RootNode (model correction matrix)"
    },
    {
      "children": [
        3
      ],
      "matrix": [
        1,
        0,
        0,
        0,
        0,
        0,
        1,
        0,
        0,
        -1,
        0,
        0,
        0,
        0,
        0,
        1
      ],
      "name": "8c11c0518eda49af8d70b71777dc0d3a.fbx"
    },
    {
      "children": [
        4,
        6,
        8
      ],
      "name": "RootNode"
    },
    {
      "children": [
        5
      ],
      "matrix": [
        1,
        0,
        0,
        0,
        0,
        0.99999999999998668,
        1.6292067073209113e-07,
        0,
        0,
        -1.6292067073209113e-07,
        0.99999999999998668,
        0,
        0,
        0,
        0,
        1
      ],
      "name": "Dress_low"
    },
    {
      "mesh": 0,
      "name": "Dress_low_Dress_low_0"
    },
    {
      "children": [
        7
      ],
      "matrix": [
        1,
        0,
        0,
        0,
        0,
        0.99999999999998668,
        1.6292067073209113e-07,
        0,
        0,
        -1.6292067073209113e-07,
        0.99999999999998668,
        0,
        0,
        0,
        0,
        1
      ],
      "name": "Hair_low"
    },
    {
      "mesh": 1,
      "name": "Hair_low_Hair_low_0"
    },
    {
      "children": [
        9
      ],
      "matrix": [
        1,
        0,
        0,
        0,
        0,
        0.99999999999998668,
        1.6292067073209113e-07,
        0,
        0,
        -1.6292067073209113e-07,
        0.99999999999998668,
        0,
        0,
        0,
        0,
        1
      ],
      "name": "Body_low"
    },
    {
      "mesh": 2,
      "name": "Body_low_Body_low_0"
    }
  ],
  "samplers": [
    {
      "magFilter": 9729,
      "minFilter": 9987,
      "wrapS": 10497,
      "wrapT": 10497
    }
  ],
  "scene": 0,
  "scenes": [
    {
      "name": "OSG_Scene",
      "nodes": [
        0
      ]
    }
  ],
  "textures": [
    {
      "sampler": 0,
      "source": 0
    },
    {
      "sampler": 0,
      "source": 1
    },
    {
      "sampler": 0,
      "source": 2
    },
    {
      "sampler": 0,
      "source": 3
    },
    {
      "sampler": 0,
      "source": 4
    },
    {
      "sampler": 0,
      "source": 5
    },
    {
      "sampler": 0,
      "source": 6
    },
    {
      "sampler": 0,
      "source": 7
    },
    {
      "sampler": 0,
      "source": 8
    }
  ]
}

