{
  "accessors": [
    {
      "bufferView": 2,
      "componentType": 5126,
      "count": 52,
      "max": [
        2.6407899856567383,
        1.7286797761917114,
        2.3206865787506104
      ],
      "min": [
        -1.9263173341751099,
        -1.7286797761917114,
        0.48584449291229248
      ],
      "type": "VEC3"
    },
    {
      "bufferView": 2,
      "byteOffset": 624,
      "componentType": 5126,
      "count": 52,
      "max": [
        0,
        0,
        1
      ],
      "min": [
        0,
        0,
        -1
      ],
      "type": "VEC3"
    },
    {
      "bufferView": 1,
      "componentType": 5126,
      "count": 52,
      "max": [
        0.875,
        0.75
      ],
      "min": [
        0.125,
        0.5
      ],
      "type": "VEC2"
    },
    {
      "bufferView": 0,
      "componentType": 5125,
      "count": 174,
      "max": [
        51
      ],
      "min": [
        0
      ],
      "type": "SCALAR"
    },
    {
      "bufferView": 2,
      "byteOffset": 1248,
      "componentType": 5126,
      "count": 64,
      "max": [
        2.2170894145965576,
        1.5711660385131836,
        2.1287033557891846
      ],
      "min": [
        -1.5026168823242188,
        -1.5711660385131836,
        0.48584449291229248
      ],
      "type": "VEC3"
    },
    {
      "bufferView": 2,
      "byteOffset": 2016,
      "componentType": 5126,
      "count": 64,
      "max": [
        1,
        1,
        0
      ],
      "min": [
        -1,
        -1,
        0
      ],
      "type": "VEC3"
    },
    {
      "bufferView": 1,
      "byteOffset": 416,
      "componentType": 5126,
      "count": 64,
      "max": [
        0.375,
        1
      ],
      "min": [
        0.125,
        0
      ],
      "type": "VEC2"
    },
    {
      "bufferView": 0,
      "byteOffset": 696,
      "componentType": 5125,
      "count": 96,
      "max": [
        63
      ],
      "min": [
        0
      ],
      "type": "SCALAR"
    },
    {
      "bufferView": 2,
      "byteOffset": 2784,
      "componentType": 5126,
      "count": 98,
      "max": [
        2.6407899856567383,
        1.7286797761917114,
        2.3206865787506104
      ],
      "min": [
        -1.9263173341751099,
        -1.7286797761917114,
        2.1287033557891846
      ],
      "type": "VEC3"
    },
    {
      "bufferView": 2,
      "byteOffset": 3960,
      "componentType": 5126,
      "count": 98,
      "max": [
        1,
        1,
        5.6725628638787384e-08
      ],
      "min": [
        -1,
        -1,
        -1
      ],
      "type": "VEC3"
    },
    {
      "bufferView": 1,
      "byteOffset": 928,
      "componentType": 5126,
      "count": 98,
      "max": [
        0.625,
        1
      ],
      "min": [
        0.125,
        0
      ],
      "type": "VEC2"
    },
    {
      "bufferView": 0,
      "byteOffset": 1080,
      "componentType": 5125,
      "count": 246,
      "max": [
        97
      ],
      "min": [
        0
      ],
      "type": "SCALAR"
    }
  ],
  "asset": {
    "extras": {
      "author": "isaidhello (https://sketchfab.com/isaidhello)",
      "license": "CC-BY-4.0 (http://creativecommons.org/licenses/by/4.0/)",
      "source": "https://sketchfab.com/3d-models/restaurant-table-7c4dfceaad6c48d99b412dbaacfcff42",
      "title": "Restaurant Table"
    },
    "generator": "Sketchfab-8.70.0",
    "version": "2.0"
  },
  "bufferViews": [
    {
      "buffer": 0,
      "byteLength": 2064,
      "byteOffset": 0,
      "name": "floatBufferViews",
      "target": 34963
    },
    {
      "buffer": 0,
      "byteLength": 1712,
      "byteOffset": 2064,
      "byteStride": 8,
      "name": "floatBufferViews",
      "target": 34962
    },
    {
      "buffer": 0,
      "byteLength": 5136,
      "byteOffset": 3776,
      "byteStride": 12,
      "name": "floatBufferViews",
      "target": 34962
    }
  ],
  "buffers": [
    {
      "byteLength": 8912,
      "uri": "scene.bin"
    }
  ],
  "materials": [
    {
      "doubleSided": true,
      "emissiveFactor": [
        0,
        0,
        0
      ],
      "name": "tafelblad_bovenkant",
      "pbrMetallicRoughness": {
        "baseColorFactor": [
          0.16794899999999999,
          0.032912299999999999,
          0.0059996900000000002,
          1
        ],
        "metallicFactor": 0,
        "roughnessFactor": 0.98193158339569153
      }
    },
    {
      "doubleSided": true,
      "emissiveFactor": [
        0,
        0,
        0
      ],
      "name": "Tafelpoten",
      "pbrMetallicRoughness": {
        "baseColorFactor": [
          0.17335500000000001,
          0.033800900000000002,
          0.012435099999999999,
          1
        ],
        "metallicFactor": 0,
        "roughnessFactor": 0.98615259206715999
      }
    },
    {
      "doubleSided": true,
      "emissiveFactor": [
        0,
        0,
        0
      ],
      "name": "Zijkant_en_onderzijde_tafelblad",
      "pbrMetallicRoughness": {
        "baseColorFactor": [
          0.11927599999999999,
          0.0174915,
          0.0044230600000000004,
          1
        ],
        "metallicFactor": 0,
        "roughnessFactor": 0.99146105044295252
      }
    }
  ],
  "meshes": [
    {
      "name": "Table_tafelblad bovenkant_0",
      "primitives": [
        {
          "attributes": {
            "NORMAL": 1,
            "POSITION": 0,
            "TEXCOORD_0": 2
          },
          "indices": 3,
          "material": 0,
          "mode": 4
        }
      ]
    },
    {
      "name": "Table_Tafelpoten_0",
      "primitives": [
        {
          "attributes": {
            "NORMAL": 5,
            "POSITION": 4,
            "TEXCOORD_0": 6
          },
          "indices": 7,
          "material": 1,
          "mode": 4
        }
      ]
    },
    {
      "name": "Table_Zijkant en onderzijde tafelblad_0",
      "primitives": [
        {
          "attributes": {
            "NORMAL": 9,
            "POSITION": 8,
            "TEXCOORD_0": 10
          },
          "indices": 11,
          "material": 2,
          "mode": 4
        }
      ]
    }
  ],
  "nodes": [
    {
      "children": [
        1
      ],
      "name": "RootNode (gltf orientation matrix)",
      "rotation": [
        -0.70710678118654746,
        -0,
        -0,
        0.70710678118654757
      ]
    },
    {
      "children": [
        2
      ],
      "name": "RootNode (model correction matrix)"
    },
    {
      "children": [
        3
      ],
      "matrix": [
        1,
        0,
        0,
        0,
        0,
        0,
        1,
        0,
        0,
        -1,
        0,
        0,
        0,
        0,
        0,
        1
      ],
      "name": "7dccae1b068c4c00856a9928bdd094c5.fbx"
    },
    {
      "children": [
        4
      ],
      "name": "RootNode"
    },
    {
      "children": [
        5,
        6,
        7
      ],
      "matrix": [
        99.999999999998664,
        -1.3234889800848443e-21,
        1.6292069915380057e-05,
        0,
        1.6292069915379841e-05,
        -1.6292067939183141e-05,
        -99.999999999997328,
        0,
        2.6543151011721262e-12,
        99.999999999998664,
        -1.6292067939183141e-05,
        0,
        0,
        0,
        0,
        1
      ],
      "name": "Table"
    },
    {
      "mesh": 0,
      "name": "Table_tafelblad bovenkant_0"
    },
    {
      "mesh": 1,
      "name": "Table_Tafelpoten_0"
    },
    {
      "mesh": 2,
      "name": "Table_Zijkant en onderzijde tafelblad_0"
    }
  ],
  "scene": 0,
  "scenes": [
    {
      "name": "OSG_Scene",
      "nodes": [
        0
      ]
    }
  ]
}

