{
  "accessors": [
    {
      "bufferView": 2,
      "componentType": 5126,
      "count": 170,
      "max": [
        0.47342801094055176,
        0.31773099303245544,
        0.47342801094055176
      ],
      "min": [
        -0.47342801094055176,
        -0.056283000856637955,
        -0.47342801094055176
      ],
      "type": "VEC3"
    },
    {
      "bufferView": 2,
      "byteOffset": 2040,
      "componentType": 5126,
      "count": 170,
      "max": [
        0.99920362234115601,
        1,
        0.99920362234115601
      ],
      "min": [
        -0.99920362234115601,
        -1,
        -0.99920362234115601
      ],
      "type": "VEC3"
    },
    {
      "bufferView": 3,
      "componentType": 5126,
      "count": 170,
      "max": [
        0.99999654293060303,
        0.022119833156466484,
        0.9999966025352478,
        1
      ],
      "min": [
        -0.9999966025352478,
        -0.022106282413005829,
        -0.9999966025352478,
        1
      ],
      "type": "VEC4"
    },
    {
      "bufferView": 1,
      "componentType": 5126,
      "count": 170,
      "max": [
        0.75407397747039795,
        0.91962999105453491
      ],
      "min": [
        0.033370301127433777,
        0
      ],
      "type": "VEC2"
    },
    {
      "bufferView": 0,
      "componentType": 5125,
      "count": 480,
      "max": [
        169
      ],
      "min": [
        0
      ],
      "type": "SCALAR"
    },
    {
      "bufferView": 2,
      "byteOffset": 4080,
      "componentType": 5126,
      "count": 114,
      "max": [
        0.21432800590991974,
        1,
        0.21432800590991974
      ],
      "min": [
        -0.21432800590991974,
        0.30550700426101685,
        -0.21432900428771973
      ],
      "type": "VEC3"
    },
    {
      "bufferView": 2,
      "byteOffset": 5448,
      "componentType": 5126,
      "count": 114,
      "max": [
        0.99728274345397949,
        1,
        0.99728274345397949
      ],
      "min": [
        -0.99728274345397949,
        -0.041054103523492813,
        -0.99728274345397949
      ],
      "type": "VEC3"
    },
    {
      "bufferView": 3,
      "byteOffset": 2720,
      "componentType": 5126,
      "count": 114,
      "max": [
        0.7626497745513916,
        0.9995008111000061,
        0.73447972536087036,
        1
      ],
      "min": [
        -0.67323720455169678,
        -0.71508997678756714,
        -0.8954845666885376,
        1
      ],
      "type": "VEC4"
    },
    {
      "bufferView": 1,
      "byteOffset": 1360,
      "componentType": 5126,
      "count": 114,
      "max": [
        0.95107501745223999,
        0.61324399709701538
      ],
      "min": [
        0.76180201768875122,
        0.01003590039908886
      ],
      "type": "VEC2"
    },
    {
      "bufferView": 0,
      "byteOffset": 1920,
      "componentType": 5125,
      "count": 540,
      "max": [
        113
      ],
      "min": [
        0
      ],
      "type": "SCALAR"
    },
    {
      "bufferView": 2,
      "byteOffset": 6816,
      "componentType": 5126,
      "count": 202,
      "max": [
        0.55513399839401245,
        0.067361399531364441,
        0.55513399839401245
      ],
      "min": [
        -0.55513399839401245,
        -1,
        -0.55513399839401245
      ],
      "type": "VEC3"
    },
    {
      "bufferView": 2,
      "byteOffset": 9240,
      "componentType": 5126,
      "count": 202,
      "max": [
        1,
        0.88878321647644043,
        1
      ],
      "min": [
        -1,
        -1,
        -1
      ],
      "type": "VEC3"
    },
    {
      "bufferView": 3,
      "byteOffset": 4544,
      "componentType": 5126,
      "count": 202,
      "max": [
        1,
        0.52192991971969604,
        1,
        1
      ],
      "min": [
        -1,
        -0.5220075249671936,
        -1,
        1
      ],
      "type": "VEC4"
    },
    {
      "bufferView": 1,
      "byteOffset": 2272,
      "componentType": 5126,
      "count": 202,
      "max": [
        0.97650998830795288,
        0.98999202251434326
      ],
      "min": [
        0,
        0.12338600307703018
      ],
      "type": "VEC2"
    },
    {
      "bufferView": 0,
      "byteOffset": 4080,
      "componentType": 5125,
      "count": 912,
      "max": [
        201
      ],
      "min": [
        0
      ],
      "type": "SCALAR"
    }
  ],
  "asset": {
    "extras": {
      "author": "kasym.hashim (https://sketchfab.com/kasym.hashim)",
      "license": "CC-BY-4.0 (http://creativecommons.org/licenses/by/4.0/)",
      "source": "https://sketchfab.com/3d-models/baby-bottle-4435f08637794f47a8e17197cff81935",
      "title": "Baby Bottle"
    },
    "generator": "Sketchfab-8.69.0",
    "version": "2.0"
  },
  "bufferViews": [
    {
      "buffer": 0,
      "byteLength": 7728,
      "byteOffset": 0,
      "name": "floatBufferViews",
      "target": 34963
    },
    {
      "buffer": 0,
      "byteLength": 3888,
      "byteOffset": 7728,
      "byteStride": 8,
      "name": "floatBufferViews",
      "target": 34962
    },
    {
      "buffer": 0,
      "byteLength": 11664,
      "byteOffset": 11616,
      "byteStride": 12,
      "name": "floatBufferViews",
      "target": 34962
    },
    {
      "buffer": 0,
      "byteLength": 7776,
      "byteOffset": 23280,
      "byteStride": 16,
      "name": "floatBufferViews",
      "target": 34962
    }
  ],
  "buffers": [
    {
      "byteLength": 31056,
      "uri": "scene.bin"
    }
  ],
  "images": [
    {
      "uri": "textures/lambert1_baseColor.png"
    },
    {
      "uri": "textures/lambert1_metallicRoughness.png"
    },
    {
      "uri": "textures/lambert1_normal.png"
    }
  ],
  "materials": [
    {
      "alphaMode": "BLEND",
      "doubleSided": true,
      "name": "lambert1",
      "normalTexture": {
        "index": 2,
        "scale": 1,
        "texCoord": 0
      },
      "occlusionTexture": {
        "index": 1,
        "strength": 1,
        "texCoord": 0
      },
      "pbrMetallicRoughness": {
        "baseColorFactor": [
          1,
          1,
          1,
          1
        ],
        "baseColorTexture": {
          "index": 0,
          "texCoord": 0
        },
        "metallicFactor": 1,
        "metallicRoughnessTexture": {
          "index": 1,
          "texCoord": 0
        },
        "roughnessFactor": 1
      }
    }
  ],
  "meshes": [
    {
      "name": "defaultMaterial",
      "primitives": [
        {
          "attributes": {
            "NORMAL": 1,
            "POSITION": 0,
            "TANGENT": 2,
            "TEXCOORD_0": 3
          },
          "indices": 4,
          "material": 0,
          "mode": 4
        }
      ]
    },
    {
      "name": "defaultMaterial",
      "primitives": [
        {
          "attributes": {
            "NORMAL": 6,
            "POSITION": 5,
            "TANGENT": 7,
            "TEXCOORD_0": 8
          },
          "indices": 9,
          "material": 0,
          "mode": 4
        }
      ]
    },
    {
      "name": "defaultMaterial",
      "primitives": [
        {
          "attributes": {
            "NORMAL": 11,
            "POSITION": 10,
            "TANGENT": 12,
            "TEXCOORD_0": 13
          },
          "indices": 14,
          "material": 0,
          "mode": 4
        }
      ]
    }
  ],
  "nodes": [
    {
      "children": [
        1
      ],
      "name": "RootNode (gltf orientation matrix)",
      "rotation": [
        -0.70710678118654746,
        -0,
        -0,
        0.70710678118654757
      ]
    },
    {
      "children": [
        2
      ],
      "name": "RootNode (model correction matrix)"
    },
    {
      "children": [
        3,
        5,
        7
      ],
      "matrix": [
        1,
        0,
        0,
        0,
        0,
        -4.3711390063094768e-08,
        0.999999999999999,
        0,
        0,
        -0.999999999999999,
        -4.3711390063094768e-08,
        0,
        0,
        0,
        0,
        1
      ],
      "name": "Collada visual scene group"
    },
    {
      "children": [
        4
      ],
      "name": "Cap_low"
    },
    {
      "mesh": 0,
      "name": "defaultMaterial"
    },
    {
      "children": [
        6
      ],
      "name": "Nipple_low"
    },
    {
      "mesh": 1,
      "name": "defaultMaterial"
    },
    {
      "children": [
        8
      ],
      "name": "Bottle_low"
    },
    {
      "mesh": 2,
      "name": "defaultMaterial"
    }
  ],
  "samplers": [
    {
      "magFilter": 9729,
      "minFilter": 9987,
      "wrapS": 10497,
      "wrapT": 10497
    }
  ],
  "scene": 0,
  "scenes": [
    {
      "name": "OSG_Scene",
      "nodes": [
        0
      ]
    }
  ],
  "textures": [
    {
      "sampler": 0,
      "source": 0
    },
    {
      "sampler": 0,
      "source": 1
    },
    {
      "sampler": 0,
      "source": 2
    }
  ]
}

