{
  "accessors": [
    {
      "bufferView": 2,
      "componentType": 5126,
      "count": 18909,
      "max": [
        103.30258178710938,
        36.014244079589844,
        46.75640869140625
      ],
      "min": [
        -58.923011779785156,
        -36.294689178466797,
        -37.142948150634766
      ],
      "type": "VEC3"
    },
    {
      "bufferView": 2,
      "byteOffset": 226908,
      "componentType": 5126,
      "count": 18909,
      "max": [
        0.99998873472213745,
        0.99988073110580444,
        0.99999475479125977
      ],
      "min": [
        -0.99998658895492554,
        -0.99996495246887207,
        -0.99999678134918213
      ],
      "type": "VEC3"
    },
    {
      "bufferView": 3,
      "componentType": 5126,
      "count": 18909,
      "max": [
        1,
        1,
        0.99995142221450806,
        1
      ],
      "min": [
        -1,
        -1,
        -0.99991828203201294,
        -1
      ],
      "type": "VEC4"
    },
    {
      "bufferView": 1,
      "componentType": 5126,
      "count": 18909,
      "max": [
        0.99613302946090698,
        0.99800002574920654
      ],
      "min": [
        0.0020000000949949026,
        0.0020000000949949026
      ],
      "type": "VEC2"
    },
    {
      "bufferView": 0,
      "componentType": 5125,
      "count": 107400,
      "max": [
        18908
      ],
      "min": [
        0
      ],
      "type": "SCALAR"
    },
    {
      "bufferView": 2,
      "byteOffset": 453816,
      "componentType": 5126,
      "count": 8,
      "max": [
        105.30258178710938,
        40,
        -55.740146636962891
      ],
      "min": [
        -58.923011779785156,
        -40,
        -56.902683258056641
      ],
      "type": "VEC3"
    },
    {
      "bufferView": 2,
      "byteOffset": 453912,
      "componentType": 5126,
      "count": 8,
      "max": [
        0,
        0,
        -1
      ],
      "min": [
        0,
        0,
        -1
      ],
      "type": "VEC3"
    },
    {
      "bufferView": 3,
      "byteOffset": 302544,
      "componentType": 5126,
      "count": 8,
      "max": [
        6.8446001932898071e-06,
        -1,
        0,
        -1
      ],
      "min": [
        0,
        -1,
        0,
        -1
      ],
      "type": "VEC4"
    },
    {
      "bufferView": 1,
      "byteOffset": 151272,
      "componentType": 5126,
      "count": 8,
      "max": [
        0.99800002574920654,
        0.71049797534942627
      ],
      "min": [
        0.71857798099517822,
        0.38633498549461365
      ],
      "type": "VEC2"
    },
    {
      "bufferView": 0,
      "byteOffset": 429600,
      "componentType": 5125,
      "count": 12,
      "max": [
        7
      ],
      "min": [
        0
      ],
      "type": "SCALAR"
    },
    {
      "bufferView": 2,
      "byteOffset": 454008,
      "componentType": 5126,
      "count": 18516,
      "max": [
        108.83936309814453,
        42,
        48.131568908691406
      ],
      "min": [
        -61.474880218505859,
        -43.351303100585938,
        -56.902683258056641
      ],
      "type": "VEC3"
    },
    {
      "bufferView": 2,
      "byteOffset": 676200,
      "componentType": 5126,
      "count": 18516,
      "max": [
        1,
        1,
        1
      ],
      "min": [
        -1,
        -1,
        -1
      ],
      "type": "VEC3"
    },
    {
      "bufferView": 3,
      "byteOffset": 302672,
      "componentType": 5126,
      "count": 18516,
      "max": [
        1,
        1,
        1,
        1
      ],
      "min": [
        -1,
        -1,
        -1,
        1
      ],
      "type": "VEC4"
    },
    {
      "bufferView": 1,
      "byteOffset": 151336,
      "componentType": 5126,
      "count": 18516,
      "max": [
        0.99823898077011108,
        0.99858897924423218
      ],
      "min": [
        0.0020000000949949026,
        0.0020000000949949026
      ],
      "type": "VEC2"
    },
    {
      "bufferView": 0,
      "byteOffset": 429648,
      "componentType": 5125,
      "count": 76080,
      "max": [
        18515
      ],
      "min": [
        0
      ],
      "type": "SCALAR"
    }
  ],
  "asset": {
    "extras": {
      "author": "Francesco Coldesina (https://sketchfab.com/topfrank2013)",
      "license": "CC-BY-4.0 (http://creativecommons.org/licenses/by/4.0/)",
      "source": "https://sketchfab.com/models/7845219786f94573958bd1c6d59da1ed",
      "title": "Vernished Baby Bed"
    },
    "generator": "Sketchfab-3.19.4",
    "version": "2.0"
  },
  "bufferViews": [
    {
      "buffer": 0,
      "byteLength": 733968,
      "byteOffset": 0,
      "name": "floatBufferViews",
      "target": 34963
    },
    {
      "buffer": 0,
      "byteLength": 299464,
      "byteOffset": 733968,
      "byteStride": 8,
      "name": "floatBufferViews",
      "target": 34962
    },
    {
      "buffer": 0,
      "byteLength": 898392,
      "byteOffset": 1033432,
      "byteStride": 12,
      "name": "floatBufferViews",
      "target": 34962
    },
    {
      "buffer": 0,
      "byteLength": 598928,
      "byteOffset": 1931824,
      "byteStride": 16,
      "name": "floatBufferViews",
      "target": 34962
    }
  ],
  "buffers": [
    {
      "byteLength": 2530752,
      "uri": "scene.bin"
    }
  ],
  "images": [
    {
      "uri": "textures/End_Materassi001_Baked_emissive.jpeg"
    },
    {
      "uri": "textures/End_Materassi001_Baked_normal.png"
    },
    {
      "uri": "textures/End_Materassi001_Baked_baseColor.jpeg"
    },
    {
      "uri": "textures/Sotto_baseColor.jpeg"
    },
    {
      "uri": "textures/wire_028089177_baseColor.jpeg"
    },
    {
      "uri": "textures/wire_028089177_metallicRoughness.png"
    }
  ],
  "materials": [
    {
      "doubleSided": true,
      "emissiveFactor": [
        0,
        0,
        0
      ],
      "emissiveTexture": {
        "index": 0,
        "texCoord": 0
      },
      "name": "End_Materassi001_Baked",
      "normalTexture": {
        "index": 1,
        "scale": 1,
        "texCoord": 0
      },
      "pbrMetallicRoughness": {
        "baseColorFactor": [
          1,
          1,
          1,
          1
        ],
        "baseColorTexture": {
          "index": 2,
          "texCoord": 0
        },
        "metallicFactor": 0,
        "roughnessFactor": 1
      }
    },
    {
      "doubleSided": true,
      "emissiveFactor": [
        0,
        0,
        0
      ],
      "name": "Sotto",
      "pbrMetallicRoughness": {
        "baseColorFactor": [
          1,
          1,
          1,
          1
        ],
        "baseColorTexture": {
          "index": 3,
          "texCoord": 0
        },
        "metallicFactor": 0,
        "roughnessFactor": 0.82145579270000002
      }
    },
    {
      "doubleSided": true,
      "emissiveFactor": [
        0,
        0,
        0
      ],
      "name": "wire_028089177",
      "pbrMetallicRoughness": {
        "baseColorFactor": [
          1,
          1,
          1,
          1
        ],
        "baseColorTexture": {
          "index": 4,
          "texCoord": 0
        },
        "metallicFactor": 0,
        "metallicRoughnessTexture": {
          "index": 5,
          "texCoord": 0
        },
        "roughnessFactor": 1
      }
    }
  ],
  "meshes": [
    {
      "primitives": [
        {
          "attributes": {
            "NORMAL": 1,
            "POSITION": 0,
            "TANGENT": 2,
            "TEXCOORD_0": 3
          },
          "indices": 4,
          "material": 0,
          "mode": 4
        }
      ]
    },
    {
      "primitives": [
        {
          "attributes": {
            "NORMAL": 6,
            "POSITION": 5,
            "TANGENT": 7,
            "TEXCOORD_0": 8
          },
          "indices": 9,
          "material": 1,
          "mode": 4
        }
      ]
    },
    {
      "primitives": [
        {
          "attributes": {
            "NORMAL": 11,
            "POSITION": 10,
            "TANGENT": 12,
            "TEXCOORD_0": 13
          },
          "indices": 14,
          "material": 2,
          "mode": 4
        }
      ]
    }
  ],
  "nodes": [
    {
      "children": [
        1
      ],
      "name": "RootNode (gltf orientation matrix)",
      "rotation": [
        -0.70710678118654746,
        -0,
        -0,
        0.70710678118654757
      ]
    },
    {
      "children": [
        2
      ],
      "name": "RootNode (model correction matrix)"
    },
    {
      "children": [
        3,
        4,
        5
      ],
      "name": "Letto END.obj.cleaner.materialmerger.gles"
    },
    {
      "mesh": 0,
      "name": ""
    },
    {
      "mesh": 1,
      "name": ""
    },
    {
      "mesh": 2,
      "name": ""
    }
  ],
  "samplers": [
    {
      "magFilter": 9729,
      "minFilter": 9987,
      "wrapS": 10497,
      "wrapT": 10497
    }
  ],
  "scene": 0,
  "scenes": [
    {
      "name": "OSG_Scene",
      "nodes": [
        0
      ]
    }
  ],
  "textures": [
    {
      "sampler": 0,
      "source": 0
    },
    {
      "sampler": 0,
      "source": 1
    },
    {
      "sampler": 0,
      "source": 2
    },
    {
      "sampler": 0,
      "source": 3
    },
    {
      "sampler": 0,
      "source": 4
    },
    {
      "sampler": 0,
      "source": 5
    }
  ]
}

