{
  "accessors": [
    {
      "bufferView": 2,
      "componentType": 5126,
      "count": 234,
      "max": [
        4.084930419921875,
        87.677261352539062,
        -16.175949096679688
      ],
      "min": [
        -29.829277038574219,
        48.963283538818359,
        -66.949165344238281
      ],
      "type": "VEC3"
    },
    {
      "bufferView": 2,
      "byteOffset": 2808,
      "componentType": 5126,
      "count": 234,
      "max": [
        1,
        1,
        1
      ],
      "min": [
        -1,
        -1,
        -1
      ],
      "type": "VEC3"
    },
    {
      "bufferView": 3,
      "componentType": 5126,
      "count": 234,
      "max": [
        0.99999719858169556,
        0.99727761745452881,
        0.99999988079071045,
        1
      ],
      "min": [
        -0.99982976913452148,
        -0.99727874994277954,
        -0.99999958276748657,
        1
      ],
      "type": "VEC4"
    },
    {
      "bufferView": 1,
      "componentType": 5126,
      "count": 234,
      "max": [
        0.54685103893280029,
        0.34895041584968567
      ],
      "min": [
        0.18927827477455139,
        0.079362273216247559
      ],
      "type": "VEC2"
    },
    {
      "bufferView": 0,
      "componentType": 5125,
      "count": 588,
      "max": [
        233
      ],
      "min": [
        0
      ],
      "type": "SCALAR"
    },
    {
      "bufferView": 2,
      "byteOffset": 5616,
      "componentType": 5126,
      "count": 182,
      "max": [
        7.1401786804199219,
        92.27923583984375,
        -16.016389846801758
      ],
      "min": [
        -32.491104125976562,
        84.553794860839844,
        -68.473533630371094
      ],
      "type": "VEC3"
    },
    {
      "bufferView": 2,
      "byteOffset": 7800,
      "componentType": 5126,
      "count": 182,
      "max": [
        1,
        1,
        1
      ],
      "min": [
        -1,
        -1,
        -1
      ],
      "type": "VEC3"
    },
    {
      "bufferView": 3,
      "byteOffset": 3744,
      "componentType": 5126,
      "count": 182,
      "max": [
        1,
        0.9999392032623291,
        0.99999713897705078,
        1
      ],
      "min": [
        -1,
        -0.76928520202636719,
        -0.99997258186340332,
        1
      ],
      "type": "VEC4"
    },
    {
      "bufferView": 1,
      "byteOffset": 1872,
      "componentType": 5126,
      "count": 182,
      "max": [
        0.94769299030303955,
        0.65166741609573364
      ],
      "min": [
        0.0040335655212402344,
        0.0093513727188110352
      ],
      "type": "VEC2"
    },
    {
      "bufferView": 0,
      "byteOffset": 2352,
      "componentType": 5125,
      "count": 396,
      "max": [
        181
      ],
      "min": [
        0
      ],
      "type": "SCALAR"
    },
    {
      "bufferView": 2,
      "byteOffset": 9984,
      "componentType": 5126,
      "count": 282,
      "max": [
        21.779052734375,
        53.537151336669922,
        -19.821699142456055
      ],
      "min": [
        -26.647994995117188,
        -0.029499053955078125,
        -62.181564331054688
      ],
      "type": "VEC3"
    },
    {
      "bufferView": 2,
      "byteOffset": 13368,
      "componentType": 5126,
      "count": 282,
      "max": [
        1,
        1,
        1
      ],
      "min": [
        -1,
        -1,
        -1
      ],
      "type": "VEC3"
    },
    {
      "bufferView": 3,
      "byteOffset": 6656,
      "componentType": 5126,
      "count": 282,
      "max": [
        0.99999850988388062,
        0.99060553312301636,
        0.99999815225601196,
        1
      ],
      "min": [
        -0.99999785423278809,
        -0.9918331503868103,
        -0.99999570846557617,
        1
      ],
      "type": "VEC4"
    },
    {
      "bufferView": 1,
      "byteOffset": 3328,
      "componentType": 5126,
      "count": 282,
      "max": [
        0.87493550777435303,
        0.98940646648406982
      ],
      "min": [
        0.1076737567782402,
        0.58718818426132202
      ],
      "type": "VEC2"
    },
    {
      "bufferView": 0,
      "byteOffset": 3936,
      "componentType": 5125,
      "count": 696,
      "max": [
        281
      ],
      "min": [
        0
      ],
      "type": "SCALAR"
    },
    {
      "bufferView": 2,
      "byteOffset": 16752,
      "componentType": 5126,
      "count": 84,
      "max": [
        11.136966705322266,
        49.843254089355469,
        -34.114860534667969
      ],
      "min": [
        5.1885147094726562,
        44.090049743652344,
        -48.943267822265625
      ],
      "type": "VEC3"
    },
    {
      "bufferView": 2,
      "byteOffset": 17760,
      "componentType": 5126,
      "count": 84,
      "max": [
        1,
        1,
        1
      ],
      "min": [
        -1,
        -1,
        -1
      ],
      "type": "VEC3"
    },
    {
      "bufferView": 3,
      "byteOffset": 11168,
      "componentType": 5126,
      "count": 84,
      "max": [
        0.0090004401281476021,
        0.99999642372131348,
        1.8351808961369898e-08,
        1
      ],
      "min": [
        -0.0090603595599532127,
        -0.0090785184875130653,
        -0.99995958805084229,
        1
      ],
      "type": "VEC4"
    },
    {
      "bufferView": 1,
      "byteOffset": 5584,
      "componentType": 5126,
      "count": 84,
      "max": [
        0.10696961730718613,
        0.99249458312988281
      ],
      "min": [
        0.0032092705368995667,
        0.58651566505432129
      ],
      "type": "VEC2"
    },
    {
      "bufferView": 0,
      "byteOffset": 6720,
      "componentType": 5125,
      "count": 240,
      "max": [
        83
      ],
      "min": [
        0
      ],
      "type": "SCALAR"
    },
    {
      "bufferView": 2,
      "byteOffset": 18768,
      "componentType": 5126,
      "count": 125,
      "max": [
        4.6986274719238281,
        85.1490478515625,
        -19.040168762207031
      ],
      "min": [
        3.2861442565917969,
        81.596328735351562,
        -22.713420867919922
      ],
      "type": "VEC3"
    },
    {
      "bufferView": 2,
      "byteOffset": 20268,
      "componentType": 5126,
      "count": 125,
      "max": [
        1,
        1,
        1
      ],
      "min": [
        -1,
        -1,
        -1
      ],
      "type": "VEC3"
    },
    {
      "bufferView": 3,
      "byteOffset": 12512,
      "componentType": 5126,
      "count": 125,
      "max": [
        0.99999958276748657,
        0.38618111610412598,
        0.40779027342796326,
        1
      ],
      "min": [
        -0.37890830636024475,
        -0.99999803304672241,
        -0.38697093725204468,
        1
      ],
      "type": "VEC4"
    },
    {
      "bufferView": 1,
      "byteOffset": 6256,
      "componentType": 5126,
      "count": 125,
      "max": [
        0.99257868528366089,
        0.97356396913528442
      ],
      "min": [
        0.88118410110473633,
        0.55322062969207764
      ],
      "type": "VEC2"
    },
    {
      "bufferView": 0,
      "byteOffset": 7680,
      "componentType": 5125,
      "count": 480,
      "max": [
        124
      ],
      "min": [
        0
      ],
      "type": "SCALAR"
    },
    {
      "bufferView": 2,
      "byteOffset": 21768,
      "componentType": 5126,
      "count": 183,
      "max": [
        4.9603657722473145,
        84.496307373046875,
        -14.613545417785645
      ],
      "min": [
        4.0434117317199707,
        82.370147705078125,
        -20.125997543334961
      ],
      "type": "VEC3"
    },
    {
      "bufferView": 2,
      "byteOffset": 23964,
      "componentType": 5126,
      "count": 183,
      "max": [
        1,
        0.99999415874481201,
        0.73557072877883911
      ],
      "min": [
        -1,
        -0.99997061491012573,
        -1
      ],
      "type": "VEC3"
    },
    {
      "bufferView": 3,
      "byteOffset": 14512,
      "componentType": 5126,
      "count": 183,
      "max": [
        1.9721999251487432e-06,
        0.99716311693191528,
        0.70708715915679932,
        1
      ],
      "min": [
        -0.99999195337295532,
        -0.99938243627548218,
        -0.70710134506225586,
        1
      ],
      "type": "VEC4"
    },
    {
      "bufferView": 1,
      "byteOffset": 7256,
      "componentType": 5126,
      "count": 183,
      "max": [
        0.94249701499938965,
        0.90005189180374146
      ],
      "min": [
        0.88773375749588013,
        0.81089413166046143
      ],
      "type": "VEC2"
    },
    {
      "bufferView": 0,
      "byteOffset": 9600,
      "componentType": 5125,
      "count": 396,
      "max": [
        182
      ],
      "min": [
        0
      ],
      "type": "SCALAR"
    },
    {
      "bufferView": 2,
      "byteOffset": 26160,
      "componentType": 5126,
      "count": 1017,
      "max": [
        47.958038330078125,
        54.789688110351562,
        -22.000232696533203
      ],
      "min": [
        -4.1262264251708984,
        -1.3559767007827759,
        -67.050529479980469
      ],
      "type": "VEC3"
    },
    {
      "bufferView": 2,
      "byteOffset": 38364,
      "componentType": 5126,
      "count": 1017,
      "max": [
        0.99960869550704956,
        1,
        0.99877780675888062
      ],
      "min": [
        -0.99624818563461304,
        -0.99999904632568359,
        -0.99864804744720459
      ],
      "type": "VEC3"
    },
    {
      "bufferView": 3,
      "byteOffset": 17440,
      "componentType": 5126,
      "count": 1017,
      "max": [
        0.99955219030380249,
        0.96923136711120605,
        1,
        1
      ],
      "min": [
        -0.99973505735397339,
        -0.98599076271057129,
        -1,
        -1
      ],
      "type": "VEC4"
    },
    {
      "bufferView": 1,
      "byteOffset": 8720,
      "componentType": 5126,
      "count": 1017,
      "max": [
        0.99260282516479492,
        0.72748947143554688
      ],
      "min": [
        0.37198269367218018,
        0.24143496155738831
      ],
      "type": "VEC2"
    },
    {
      "bufferView": 0,
      "byteOffset": 11184,
      "componentType": 5125,
      "count": 3774,
      "max": [
        1016
      ],
      "min": [
        0
      ],
      "type": "SCALAR"
    },
    {
      "bufferView": 2,
      "byteOffset": 50568,
      "componentType": 5126,
      "count": 364,
      "max": [
        1.7435989379882812,
        107.27751922607422,
        -23.452550888061523
      ],
      "min": [
        -6.05712890625,
        53.966583251953125,
        -65.554046630859375
      ],
      "type": "VEC3"
    },
    {
      "bufferView": 2,
      "byteOffset": 54936,
      "componentType": 5126,
      "count": 364,
      "max": [
        0.99623680114746094,
        0.99581581354141235,
        0.9988054633140564
      ],
      "min": [
        -0.99701333045959473,
        -0.9961845874786377,
        -0.9988025426864624
      ],
      "type": "VEC3"
    },
    {
      "bufferView": 3,
      "byteOffset": 33712,
      "componentType": 5126,
      "count": 364,
      "max": [
        0.51989179849624634,
        0.99525684118270874,
        0.99999773502349854,
        1
      ],
      "min": [
        -0.53353345394134521,
        -0.99652659893035889,
        -0.99999552965164185,
        1
      ],
      "type": "VEC4"
    },
    {
      "bufferView": 1,
      "byteOffset": 16856,
      "componentType": 5126,
      "count": 364,
      "max": [
        0.41882503032684326,
        0.57911264896392822
      ],
      "min": [
        0.0086242333054542542,
        0.043607614934444427
      ],
      "type": "VEC2"
    },
    {
      "bufferView": 0,
      "byteOffset": 26280,
      "componentType": 5125,
      "count": 1050,
      "max": [
        363
      ],
      "min": [
        0
      ],
      "type": "SCALAR"
    }
  ],
  "asset": {
    "extras": {
      "author": "Kevin Johnson (https://sketchfab.com/Pittree)",
      "license": "CC-BY-4.0 (http://creativecommons.org/licenses/by/4.0/)",
      "source": "https://sketchfab.com/3d-models/toilet-868beb5a0e6840d7a1d647a42a5e5a8c",
      "title": "Toilet"
    },
    "generator": "Sketchfab-6.75.0",
    "version": "2.0"
  },
  "bufferViews": [
    {
      "buffer": 0,
      "byteLength": 30480,
      "byteOffset": 0,
      "name": "floatBufferViews",
      "target": 34963
    },
    {
      "buffer": 0,
      "byteLength": 19768,
      "byteOffset": 30480,
      "byteStride": 8,
      "name": "floatBufferViews",
      "target": 34962
    },
    {
      "buffer": 0,
      "byteLength": 59304,
      "byteOffset": 50248,
      "byteStride": 12,
      "name": "floatBufferViews",
      "target": 34962
    },
    {
      "buffer": 0,
      "byteLength": 39536,
      "byteOffset": 109552,
      "byteStride": 16,
      "name": "floatBufferViews",
      "target": 34962
    }
  ],
  "buffers": [
    {
      "byteLength": 149088,
      "uri": "scene.bin"
    }
  ],
  "images": [
    {
      "uri": "textures/lambert2_baseColor.png"
    },
    {
      "uri": "textures/lambert2_metallicRoughness.png"
    },
    {
      "uri": "textures/lambert2_normal.png"
    },
    {
      "uri": "textures/lambert1_baseColor.png"
    },
    {
      "uri": "textures/lambert1_metallicRoughness.png"
    }
  ],
  "materials": [
    {
      "doubleSided": true,
      "emissiveFactor": [
        0,
        0,
        0
      ],
      "name": "lambert2",
      "normalTexture": {
        "index": 2,
        "scale": 1,
        "texCoord": 0
      },
      "occlusionTexture": {
        "index": 1,
        "strength": 0.5,
        "texCoord": 0
      },
      "pbrMetallicRoughness": {
        "baseColorFactor": [
          1,
          1,
          1,
          1
        ],
        "baseColorTexture": {
          "index": 0,
          "texCoord": 0
        },
        "metallicFactor": 1,
        "metallicRoughnessTexture": {
          "index": 1,
          "texCoord": 0
        },
        "roughnessFactor": 1
      }
    },
    {
      "doubleSided": true,
      "emissiveFactor": [
        0,
        0,
        0
      ],
      "name": "lambert1",
      "normalTexture": {
        "index": 2,
        "scale": 1,
        "texCoord": 0
      },
      "occlusionTexture": {
        "index": 4,
        "strength": 1,
        "texCoord": 0
      },
      "pbrMetallicRoughness": {
        "baseColorFactor": [
          1,
          1,
          1,
          1
        ],
        "baseColorTexture": {
          "index": 3,
          "texCoord": 0
        },
        "metallicFactor": 0.68464176829268297,
        "metallicRoughnessTexture": {
          "index": 4,
          "texCoord": 0
        },
        "roughnessFactor": 1
      }
    }
  ],
  "meshes": [
    {
      "name": "pCube21_lambert2_0",
      "primitives": [
        {
          "attributes": {
            "NORMAL": 1,
            "POSITION": 0,
            "TANGENT": 2,
            "TEXCOORD_0": 3
          },
          "indices": 4,
          "material": 0,
          "mode": 4
        }
      ]
    },
    {
      "name": "pCube22_lambert2_0",
      "primitives": [
        {
          "attributes": {
            "NORMAL": 6,
            "POSITION": 5,
            "TANGENT": 7,
            "TEXCOORD_0": 8
          },
          "indices": 9,
          "material": 0,
          "mode": 4
        }
      ]
    },
    {
      "name": "pCube23_lambert2_0",
      "primitives": [
        {
          "attributes": {
            "NORMAL": 11,
            "POSITION": 10,
            "TANGENT": 12,
            "TEXCOORD_0": 13
          },
          "indices": 14,
          "material": 0,
          "mode": 4
        }
      ]
    },
    {
      "name": "pCylinder4_lambert1_0",
      "primitives": [
        {
          "attributes": {
            "NORMAL": 16,
            "POSITION": 15,
            "TANGENT": 17,
            "TEXCOORD_0": 18
          },
          "indices": 19,
          "material": 1,
          "mode": 4
        }
      ]
    },
    {
      "name": "pCylinder5_lambert2_0",
      "primitives": [
        {
          "attributes": {
            "NORMAL": 21,
            "POSITION": 20,
            "TANGENT": 22,
            "TEXCOORD_0": 23
          },
          "indices": 24,
          "material": 0,
          "mode": 4
        }
      ]
    },
    {
      "name": "pCube24_lambert2_0",
      "primitives": [
        {
          "attributes": {
            "NORMAL": 26,
            "POSITION": 25,
            "TANGENT": 27,
            "TEXCOORD_0": 28
          },
          "indices": 29,
          "material": 0,
          "mode": 4
        }
      ]
    },
    {
      "name": "pCylinder2_lambert2_0",
      "primitives": [
        {
          "attributes": {
            "NORMAL": 31,
            "POSITION": 30,
            "TANGENT": 32,
            "TEXCOORD_0": 33
          },
          "indices": 34,
          "material": 0,
          "mode": 4
        }
      ]
    },
    {
      "name": "pCylinder3_lambert2_0",
      "primitives": [
        {
          "attributes": {
            "NORMAL": 36,
            "POSITION": 35,
            "TANGENT": 37,
            "TEXCOORD_0": 38
          },
          "indices": 39,
          "material": 0,
          "mode": 4
        }
      ]
    }
  ],
  "nodes": [
    {
      "children": [
        1
      ],
      "name": "RootNode (gltf orientation matrix)",
      "rotation": [
        -0.70710678118654746,
        -0,
        -0,
        0.70710678118654757
      ]
    },
    {
      "children": [
        2
      ],
      "name": "RootNode (model correction matrix)"
    },
    {
      "children": [
        3
      ],
      "matrix": [
        1,
        0,
        0,
        0,
        0,
        0,
        1,
        0,
        0,
        -1,
        0,
        0,
        0,
        0,
        0,
        1
      ],
      "name": "312371fe8f124f2399f5701f4c2ca03a.fbx"
    },
    {
      "children": [
        4
      ],
      "name": "RootNode"
    },
    {
      "children": [
        5,
        10,
        12,
        14,
        16,
        18
      ],
      "matrix": [
        1.0972226858139038,
        0,
        0,
        0,
        0,
        1.0972226858139038,
        0,
        0,
        0,
        0,
        1.0972226858139038,
        0,
        -66.152305603027344,
        -0.56158524751663208,
        -0.55252605676651001,
        1
      ],
      "name": "toilet"
    },
    {
      "children": [
        6,
        8
      ],
      "matrix": [
        1.1197929382324219,
        0,
        0,
        0,
        0,
        1.1197929382324219,
        0,
        0,
        0,
        0,
        1.1197929382324219,
        0,
        -0.5459977388381958,
        -6.3529753684997559,
        4.9786949157714844,
        1
      ],
      "name": "group2"
    },
    {
      "children": [
        7
      ],
      "name": "pCube21"
    },
    {
      "mesh": 0,
      "name": "pCube21_lambert2_0"
    },
    {
      "children": [
        9
      ],
      "name": "pCube22"
    },
    {
      "mesh": 1,
      "name": "pCube22_lambert2_0"
    },
    {
      "children": [
        11
      ],
      "name": "pCube23"
    },
    {
      "mesh": 2,
      "name": "pCube23_lambert2_0"
    },
    {
      "children": [
        13
      ],
      "name": "pCylinder4"
    },
    {
      "mesh": 3,
      "name": "pCylinder4_lambert1_0"
    },
    {
      "children": [
        15
      ],
      "matrix": [
        1,
        0,
        0,
        0,
        0,
        1,
        0,
        0,
        0,
        0,
        1,
        0,
        0.60298579931259155,
        0,
        0,
        1
      ],
      "name": "pCylinder5"
    },
    {
      "mesh": 4,
      "name": "pCylinder5_lambert2_0"
    },
    {
      "children": [
        17
      ],
      "name": "pCube24"
    },
    {
      "mesh": 5,
      "name": "pCube24_lambert2_0"
    },
    {
      "children": [
        19,
        21
      ],
      "matrix": [
        1,
        0,
        0,
        0,
        0,
        0.85661888122558594,
        0,
        0,
        0,
        0,
        1,
        0,
        11.76104736328125,
        0.94019800424575806,
        3.2168622016906738,
        1
      ],
      "name": "group3"
    },
    {
      "children": [
        20
      ],
      "matrix": [
        1,
        0,
        0,
        0,
        0,
        1,
        0,
        0,
        0,
        0,
        1,
        0,
        0,
        7.5495165674510645e-15,
        0,
        1
      ],
      "name": "pCylinder2"
    },
    {
      "mesh": 6,
      "name": "pCylinder2_lambert2_0"
    },
    {
      "children": [
        22
      ],
      "matrix": [
        1,
        0,
        0,
        0,
        0,
        1,
        0,
        0,
        0,
        0,
        1,
        0,
        0,
        2.2759572004815709e-14,
        0,
        1
      ],
      "name": "pCylinder3"
    },
    {
      "mesh": 7,
      "name": "pCylinder3_lambert2_0"
    }
  ],
  "samplers": [
    {
      "magFilter": 9729,
      "minFilter": 9987,
      "wrapS": 10497,
      "wrapT": 10497
    }
  ],
  "scene": 0,
  "scenes": [
    {
      "name": "OSG_Scene",
      "nodes": [
        0
      ]
    }
  ],
  "textures": [
    {
      "sampler": 0,
      "source": 0
    },
    {
      "sampler": 0,
      "source": 1
    },
    {
      "sampler": 0,
      "source": 2
    },
    {
      "sampler": 0,
      "source": 3
    },
    {
      "sampler": 0,
      "source": 4
    }
  ]
}

